<?xml version="1.0" encoding="UTF-8" standalone="no"?>
<svg width="181px" height="246px" viewBox="0 0 181 246" version="1.1" xmlns="http://www.w3.org/2000/svg" xmlns:xlink="http://www.w3.org/1999/xlink" xmlns:sketch="http://www.bohemiancoding.com/sketch/ns">
    <!-- Generator: Sketch 3.4.2 (15855) - http://www.bohemiancoding.com/sketch -->
    <title>stuff</title>
    <desc>Created with Sketch.</desc>
    <defs></defs>
    <g id="Page-1" stroke="none" stroke-width="1" fill="none" fill-rule="evenodd" sketch:type="MSPage">
        <g id="stuff" sketch:type="MSLayerGroup" transform="translate(0.000000, 1.000000)">
            <g id="1-+-Oval-1" transform="translate(75.000000, 0.000000)" sketch:type="MSShapeGroup">
                <path d="M24.44,27 L15.2,27 L15.2,25.14 L20.84,19.54 C21.2666688,19.0999978 21.6333318,18.6400024 21.94,18.16 C22.2466682,17.6799976 22.4,17.140003 22.4,16.54 C22.4,16.1666648 22.333334,15.8300015 22.2,15.53 C22.066666,15.2299985 21.8866678,14.9733344 21.66,14.76 C21.4333322,14.5466656 21.1666682,14.3833339 20.86,14.27 C20.5533318,14.1566661 20.2266684,14.1 19.88,14.1 C19.1599964,14.1 18.566669,14.3299977 18.1,14.79 C17.633331,15.2500023 17.3400006,15.8399964 17.22,16.56 L15.32,16.24 C15.4000004,15.706664 15.5699987,15.2100023 15.83,14.75 C16.0900013,14.2899977 16.419998,13.8900017 16.82,13.55 C17.220002,13.2099983 17.6833307,12.9466676 18.21,12.76 C18.7366693,12.5733324 19.299997,12.48 19.9,12.48 C20.4866696,12.48 21.0499973,12.5666658 21.59,12.74 C22.1300027,12.9133342 22.6066646,13.166665 23.02,13.5 C23.4333354,13.833335 23.7633321,14.2533308 24.01,14.76 C24.2566679,15.2666692 24.38,15.8466634 24.38,16.5 C24.38,16.9533356 24.3200006,17.3733314 24.2,17.76 C24.0799994,18.1466686 23.9166677,18.5133316 23.71,18.86 C23.5033323,19.2066684 23.2600014,19.5366651 22.98,19.85 C22.6999986,20.1633349 22.4066682,20.4733318 22.1,20.78 L17.5,25.26 L24.44,25.26 L24.44,27 Z" id="2" fill="#FFFFFF"></path>
                <path d="M20,40 C31.045695,40 40,31.045695 40,20 C40,8.954305 31.045695,0 20,0 C8.954305,0 0,8.954305 0,20 C0,31.045695 8.954305,40 20,40 Z" id="Oval-1" stroke="#FFFFFF" stroke-width="2" fill-opacity="0.300000012" fill="#D8D8D8"></path>
            </g>
            <g id="confirm-to-play-button" transform="translate(0.000000, 173.000000)">
                <rect id="Rectangle-3" fill="#D8D8D8" sketch:type="MSShapeGroup" x="0" y="0" width="181" height="72" rx="8"></rect>
                <text id="OK" sketch:type="MSTextLayer" font-family="Avenir Next" font-size="20" font-weight="420" fill="#565656">
                    <tspan x="75" y="43">OK</tspan>
                </text>
            </g>
            <path d="M27.5625,97 L27.5625,77.5703125 L31.78125,77.5703125 C33.882823,77.5703125 35.3652301,78.0468702 36.2285156,79 C37.0918012,79.9531298 37.5234375,81.4531148 37.5234375,83.5 L37.5234375,90.6484375 C37.5234375,92.7812607 37.0957074,94.3730416 36.2402344,95.4238281 C35.3847613,96.4746146 33.9648537,97 31.9804688,97 L27.5625,97 Z M30.2695312,95.0546875 L31.7929688,95.0546875 C32.2070333,95.0546875 32.572264,95.0136723 32.8886719,94.9316406 C33.2050797,94.849609 33.4687489,94.7519537 33.6796875,94.6386719 C33.8906261,94.5253901 34.0683587,94.3437512 34.2128906,94.09375 C34.3574226,93.8437488 34.4667965,93.6132823 34.5410156,93.4023438 C34.6152347,93.1914052 34.6718748,92.8789083 34.7109375,92.4648438 C34.7500002,92.0507792 34.7734375,91.6972671 34.78125,91.4042969 C34.7890625,91.1113267 34.7929688,90.6875028 34.7929688,90.1328125 L34.7929688,83.8164062 C34.7929688,83.3476539 34.7851563,82.9531266 34.7695312,82.6328125 C34.7539062,82.3124984 34.7226565,81.9921891 34.6757812,81.671875 C34.628906,81.3515609 34.5585942,81.0898448 34.4648438,80.8867188 C34.3710933,80.6835927 34.2500007,80.4902353 34.1015625,80.3066406 C33.9531243,80.123046 33.7695323,79.9824224 33.5507812,79.8847656 C33.3320302,79.7871089 33.0742202,79.7109378 32.7773438,79.65625 C32.4804673,79.6015622 32.1328145,79.5742188 31.734375,79.5742188 L30.2695312,79.5742188 L30.2695312,95.0546875 Z M40.0429688,97 L40.0429688,83.125 L42.609375,83.125 L42.609375,85.1054688 C43.0859399,84.3085898 43.5761694,83.7500016 44.0800781,83.4296875 C44.5839869,83.1093734 45.1171847,82.9492188 45.6796875,82.9492188 C45.8359383,82.9492188 45.9765619,82.9570312 46.1015625,82.9726562 L46.1015625,85.8085938 C45.6249976,85.6289054 45.1562523,85.5390625 44.6953125,85.5390625 C44.2656229,85.5390625 43.8886735,85.6347647 43.5644531,85.8261719 C43.2402328,86.0175791 42.9218766,86.3632787 42.609375,86.8632812 L42.609375,97 L40.0429688,97 Z M52.3710938,81.5078125 L52.3710938,78.859375 L54.9609375,78.859375 L54.9609375,81.5078125 L52.3710938,81.5078125 Z M48.2578125,81.5078125 L48.2578125,78.859375 L50.8359375,78.859375 L50.8359375,81.5078125 L48.2578125,81.5078125 Z M49.6757812,97.1875 C49.2851543,97.1875 48.9472671,97.1054696 48.6621094,96.9414062 C48.3769517,96.7773429 48.160157,96.5527358 48.0117188,96.2675781 C47.8632805,95.9824204 47.7578128,95.6835953 47.6953125,95.3710938 C47.6328122,95.0585922 47.6015625,94.7187518 47.6015625,94.3515625 L47.6015625,83.125 L50.1679688,83.125 L50.1679688,93.6015625 C50.1679688,94.1328152 50.246093,94.5273425 50.4023438,94.7851562 C50.5585945,95.04297 50.8476541,95.171875 51.2695312,95.171875 C51.7851588,95.171875 52.3828091,94.8867216 53.0625,94.3164062 L53.0625,83.125 L55.6289062,83.125 L55.6289062,97 L53.0625,97 L53.0625,95.6289062 C51.9687445,96.6679739 50.8398496,97.1875 49.6757812,97.1875 L49.6757812,97.1875 Z M60.5625,88.7148438 L63.5039062,88.7148438 L63.5039062,87.4609375 C63.5039062,87.0937482 63.4941407,86.7851575 63.4746094,86.5351562 C63.455078,86.285155 63.4160159,86.0429699 63.3574219,85.8085938 C63.2988278,85.5742176 63.2187505,85.3906257 63.1171875,85.2578125 C63.0156245,85.1249993 62.876954,85.0195316 62.7011719,84.9414062 C62.5253897,84.8632809 62.3125012,84.8242188 62.0625,84.8242188 C61.453122,84.8242188 61.0507822,85.0429666 60.8554688,85.4804688 C60.6601553,85.9179709 60.5625,86.7460877 60.5625,87.9648438 L60.5625,88.7148438 Z M62.0976562,97.1992188 C61.2851522,97.1992188 60.6093777,97.0839855 60.0703125,96.8535156 C59.5312473,96.6230457 59.1113296,96.2636743 58.8105469,95.7753906 C58.5097641,95.2871069 58.2988287,94.7168001 58.1777344,94.0644531 C58.05664,93.4121061 57.9960938,92.6093798 57.9960938,91.65625 L57.9960938,88.4804688 C57.9960938,87.5195264 58.0605462,86.7089877 58.1894531,86.0488281 C58.31836,85.3886686 58.5351547,84.8183618 58.8398438,84.3378906 C59.1445328,83.8574195 59.5644504,83.5039074 60.0996094,83.2773438 C60.6347683,83.0507801 61.2968711,82.9375 62.0859375,82.9375 C62.5781275,82.9375 63.0156231,82.9843745 63.3984375,83.078125 C63.7812519,83.1718755 64.1113267,83.3007804 64.3886719,83.4648438 C64.666017,83.6289071 64.9023428,83.849608 65.0976562,84.1269531 C65.2929697,84.4042983 65.4511713,84.6972641 65.5722656,85.0058594 C65.69336,85.3144547 65.7890621,85.6894509 65.859375,86.1308594 C65.9296879,86.5722678 65.9765624,87.0117166 66,87.4492188 C66.0234376,87.8867209 66.0351562,88.3984346 66.0351562,88.984375 L66.0234375,90.109375 L60.5625,90.109375 L60.5625,91.9609375 L60.5625,92.1132812 C60.5625,92.5039082 60.5644531,92.7929678 60.5683594,92.9804688 C60.5722656,93.1679697 60.5878905,93.4121079 60.6152344,93.7128906 C60.6425783,94.0136734 60.6874997,94.2382805 60.75,94.3867188 C60.8125003,94.535157 60.898437,94.6914054 61.0078125,94.8554688 C61.117188,95.0195321 61.2597647,95.1347653 61.4355469,95.2011719 C61.611329,95.2675785 61.8242175,95.3007812 62.0742188,95.3007812 C62.628909,95.3007812 63.0058584,95.11133 63.2050781,94.7324219 C63.4042979,94.3535137 63.5039062,93.7812538 63.5039062,93.015625 L63.5039062,92.171875 L66.0117188,92.171875 L66.0117188,92.7109375 C66.0117188,95.70314 64.7070443,97.1992188 62.0976562,97.1992188 L62.0976562,97.1992188 Z M72.140625,97.1992188 C71.4687466,97.1992188 70.8925805,97.111329 70.4121094,96.9355469 C69.9316382,96.7597647 69.5429702,96.5214859 69.2460938,96.2207031 C68.9492173,95.9199204 68.7148446,95.5292993 68.5429688,95.0488281 C68.3710929,94.568357 68.2539066,94.0664089 68.1914062,93.5429688 C68.1289059,93.0195286 68.0976562,92.3984411 68.0976562,91.6796875 L68.0976562,88.46875 C68.0976562,87.5390579 68.1523432,86.7578157 68.2617188,86.125 C68.3710943,85.4921843 68.5703111,84.9238306 68.859375,84.4199219 C69.1484389,83.9160131 69.5624973,83.54297 70.1015625,83.3007812 C70.6406277,83.0585925 71.3203084,82.9375 72.140625,82.9375 C72.8828162,82.9375 73.5039037,83.0273429 74.0039062,83.2070312 C74.5039088,83.3867196 74.8925767,83.6679668 75.1699219,84.0507812 C75.447267,84.4335957 75.6425776,84.8828099 75.7558594,85.3984375 C75.8691412,85.9140651 75.9257812,86.5468712 75.9257812,87.296875 L75.9257812,88.1289062 L73.6054688,88.1289062 L73.6054688,87.2851562 C73.6054688,86.3710892 73.5039073,85.7324237 73.3007812,85.3691406 C73.0976552,85.0058576 72.722659,84.8242188 72.1757812,84.8242188 C71.5507781,84.8242188 71.1425791,85.0410135 70.9511719,85.4746094 C70.7597647,85.9082053 70.6640625,86.7304627 70.6640625,87.9414062 L70.6640625,92.3125 C70.6640625,93.4843809 70.7714833,94.2753886 70.9863281,94.6855469 C71.2011729,95.0957052 71.6015596,95.3007812 72.1875,95.3007812 C72.4375012,95.3007812 72.6503897,95.259766 72.8261719,95.1777344 C73.001954,95.0957027 73.1406245,94.990235 73.2421875,94.8613281 C73.3437505,94.7324212 73.4218747,94.5585948 73.4765625,94.3398438 C73.5312503,94.1210927 73.5664062,93.9042979 73.5820312,93.6894531 C73.5976563,93.4746083 73.6054688,93.2070329 73.6054688,92.8867188 L73.6054688,91.7617188 L75.9257812,91.7617188 L75.9257812,92.7226562 C75.9257812,93.4648475 75.8671881,94.0976536 75.75,94.6210938 C75.6328119,95.1445339 75.4335952,95.6074199 75.1523438,96.0097656 C74.8710923,96.4121114 74.4824244,96.7109365 73.9863281,96.90625 C73.4902319,97.1015635 72.8750037,97.1992188 72.140625,97.1992188 L72.140625,97.1992188 Z M78.2460938,96.9648438 L78.2460938,77.5351562 L80.8125,77.5351562 L80.8125,89.1367188 L84.5742188,83.1367188 L87.2578125,83.125 L83.9882812,88.5625 L87.1523438,97 L84.5976562,97 L82.0078125,89.8867188 L80.8125,91.6796875 L80.8125,96.9648438 L78.2460938,96.9648438 Z M90.8085938,88.7148438 L93.75,88.7148438 L93.75,87.4609375 C93.75,87.0937482 93.7402345,86.7851575 93.7207031,86.5351562 C93.7011718,86.285155 93.6621097,86.0429699 93.6035156,85.8085938 C93.5449216,85.5742176 93.4648443,85.3906257 93.3632812,85.2578125 C93.2617182,85.1249993 93.1230478,85.0195316 92.9472656,84.9414062 C92.7714835,84.8632809 92.558595,84.8242188 92.3085938,84.8242188 C91.6992157,84.8242188 91.296876,85.0429666 91.1015625,85.4804688 C90.906249,85.9179709 90.8085938,86.7460877 90.8085938,87.9648438 L90.8085938,88.7148438 Z M92.34375,97.1992188 C91.5312459,97.1992188 90.8554714,97.0839855 90.3164062,96.8535156 C89.7773411,96.6230457 89.3574234,96.2636743 89.0566406,95.7753906 C88.7558579,95.2871069 88.5449225,94.7168001 88.4238281,94.0644531 C88.3027338,93.4121061 88.2421875,92.6093798 88.2421875,91.65625 L88.2421875,88.4804688 C88.2421875,87.5195264 88.30664,86.7089877 88.4355469,86.0488281 C88.5644538,85.3886686 88.7812485,84.8183618 89.0859375,84.3378906 C89.3906265,83.8574195 89.8105442,83.5039074 90.3457031,83.2773438 C90.8808621,83.0507801 91.5429648,82.9375 92.3320312,82.9375 C92.8242212,82.9375 93.2617168,82.9843745 93.6445312,83.078125 C94.0273457,83.1718755 94.3574205,83.3007804 94.6347656,83.4648438 C94.9121108,83.6289071 95.1484365,83.849608 95.34375,84.1269531 C95.5390635,84.4042983 95.697265,84.6972641 95.8183594,85.0058594 C95.9394537,85.3144547 96.0351559,85.6894509 96.1054688,86.1308594 C96.1757816,86.5722678 96.2226561,87.0117166 96.2460938,87.4492188 C96.2695314,87.8867209 96.28125,88.3984346 96.28125,88.984375 L96.2695312,90.109375 L90.8085938,90.109375 L90.8085938,91.9609375 L90.8085938,92.1132812 C90.8085938,92.5039082 90.8105469,92.7929678 90.8144531,92.9804688 C90.8183594,93.1679697 90.8339842,93.4121079 90.8613281,93.7128906 C90.888672,94.0136734 90.9335934,94.2382805 90.9960938,94.3867188 C91.0585941,94.535157 91.1445307,94.6914054 91.2539062,94.8554688 C91.3632818,95.0195321 91.5058585,95.1347653 91.6816406,95.2011719 C91.8574228,95.2675785 92.0703113,95.3007812 92.3203125,95.3007812 C92.8750028,95.3007812 93.2519521,95.11133 93.4511719,94.7324219 C93.6503916,94.3535137 93.75,93.7812538 93.75,93.015625 L93.75,92.171875 L96.2578125,92.171875 L96.2578125,92.7109375 C96.2578125,95.70314 94.953138,97.1992188 92.34375,97.1992188 L92.34375,97.1992188 Z M109.253906,97.2109375 C108.285151,97.2109375 107.455082,97.0664077 106.763672,96.7773438 C106.072262,96.4882798 105.52344,96.0625028 105.117188,95.5 C104.710935,94.9374972 104.414063,94.2812538 104.226562,93.53125 C104.039062,92.7812462 103.945312,91.906255 103.945312,90.90625 L103.945312,83.546875 C103.945312,81.5234274 104.357418,79.9902396 105.181641,78.9472656 C106.005863,77.9042917 107.363272,77.3828125 109.253906,77.3828125 C111.136728,77.3828125 112.492183,77.9081979 113.320312,78.9589844 C114.148442,80.0097709 114.5625,81.5390525 114.5625,83.546875 L114.5625,90.9179688 C114.5625,92.9414164 114.146489,94.4960883 113.314453,95.5820312 C112.482418,96.6679742 111.128916,97.2109375 109.253906,97.2109375 L109.253906,97.2109375 Z M109.253906,95.0898438 C109.785159,95.0898438 110.224608,95.0078133 110.572266,94.84375 C110.919924,94.6796867 111.183593,94.4296892 111.363281,94.09375 C111.54297,93.7578108 111.666015,93.3886739 111.732422,92.9863281 C111.798828,92.5839824 111.832031,92.0859405 111.832031,91.4921875 L111.832031,82.984375 C111.832031,82.3984346 111.798828,81.9101582 111.732422,81.5195312 C111.666015,81.1289043 111.54297,80.7695329 111.363281,80.4414062 C111.183593,80.1132796 110.919924,79.8730476 110.572266,79.7207031 C110.224608,79.5683586 109.785159,79.4921875 109.253906,79.4921875 C108.722654,79.4921875 108.283205,79.5683586 107.935547,79.7207031 C107.587889,79.8730476 107.32422,80.1132796 107.144531,80.4414062 C106.964843,80.7695329 106.841797,81.1289043 106.775391,81.5195312 C106.708984,81.9101582 106.675781,82.3984346 106.675781,82.984375 L106.675781,91.4921875 C106.675781,92.0859405 106.708984,92.5839824 106.775391,92.9863281 C106.841797,93.3886739 106.964843,93.7578108 107.144531,94.09375 C107.32422,94.4296892 107.587889,94.6796867 107.935547,94.84375 C108.283205,95.0078133 108.722654,95.0898438 109.253906,95.0898438 L109.253906,95.0898438 Z M117.246094,97 L117.246094,77.5703125 L119.953125,77.5703125 L119.953125,86.7226562 L124.40625,77.5703125 L126.925781,77.5703125 L123.082031,86.1367188 L127.546875,97 L124.910156,97 L121.007812,87.3671875 L119.953125,89.3476562 L119.953125,97 L117.246094,97 Z M136.371094,97.1875 C135.980467,97.1875 135.64258,97.1054696 135.357422,96.9414062 C135.072264,96.7773429 134.855469,96.5527358 134.707031,96.2675781 C134.558593,95.9824204 134.453125,95.6835953 134.390625,95.3710938 C134.328125,95.0585922 134.296875,94.7187518 134.296875,94.3515625 L134.296875,83.125 L136.863281,83.125 L136.863281,93.6015625 C136.863281,94.1328152 136.941405,94.5273425 137.097656,94.7851562 C137.253907,95.04297 137.542967,95.171875 137.964844,95.171875 C138.480471,95.171875 139.078122,94.8867216 139.757812,94.3164062 L139.757812,83.125 L142.324219,83.125 L142.324219,97 L139.757812,97 L139.757812,95.6289062 C138.664057,96.6679739 137.535162,97.1875 136.371094,97.1875 L136.371094,97.1875 Z M144.949219,97 L144.949219,83.125 L147.316406,83.125 L147.316406,84.4375 C148.253911,83.3984323 149.343744,82.8789062 150.585938,82.8789062 C151.757818,82.8789062 152.507811,83.4648379 152.835938,84.6367188 C153.804692,83.4648379 154.957025,82.8789062 156.292969,82.8789062 C157.019535,82.8789062 157.611326,83.1445286 158.068359,83.6757812 C158.525393,84.2070339 158.753906,85.0195258 158.753906,86.1132812 L158.753906,97 L156.386719,97 L156.386719,86.265625 C156.386719,85.6328093 156.283204,85.1894544 156.076172,84.9355469 C155.86914,84.6816394 155.574221,84.5585937 155.191406,84.5664062 C154.472653,84.5664062 153.750004,84.9414025 153.023438,85.6914062 C153.03125,85.7851567 153.035156,85.9257803 153.035156,86.1132812 L153.035156,97 L150.679688,97 L150.679688,86.265625 C150.679688,85.6328093 150.576173,85.1894544 150.369141,84.9355469 C150.162108,84.6816394 149.867189,84.5585937 149.484375,84.5664062 C148.773434,84.5664062 148.050785,84.9453087 147.316406,85.703125 L147.316406,97 L144.949219,97 Z M26.0097656,129 L26.3730469,109.570312 L29.0214844,109.570312 L32.4550781,125.332031 L35.9121094,109.570312 L38.5605469,109.570312 L38.9238281,129 L36.7324219,129 L36.5214844,114.878906 L33.2285156,129 L31.7050781,129 L28.4355469,114.878906 L28.2246094,129 L26.0097656,129 Z M43.6699219,129.1875 C43.2792949,129.1875 42.9414077,129.10547 42.65625,128.941406 C42.3710923,128.777343 42.1542976,128.552736 42.0058594,128.267578 C41.8574211,127.98242 41.7519534,127.683595 41.6894531,127.371094 C41.6269528,127.058592 41.5957031,126.718752 41.5957031,126.351562 L41.5957031,115.125 L44.1621094,115.125 L44.1621094,125.601562 C44.1621094,126.132815 44.2402336,126.527342 44.3964844,126.785156 C44.5527352,127.04297 44.8417948,127.171875 45.2636719,127.171875 C45.7792995,127.171875 46.3769497,126.886722 47.0566406,126.316406 L47.0566406,115.125 L49.6230469,115.125 L49.6230469,129 L47.0566406,129 L47.0566406,127.628906 C45.9628852,128.667974 44.8339902,129.1875 43.6699219,129.1875 L43.6699219,129.1875 Z M55.4589844,129.199219 C54.3339788,129.199219 53.4257847,128.845707 52.734375,128.138672 C52.0429653,127.431637 51.6464849,126.484381 51.5449219,125.296875 L53.6894531,124.652344 C53.7910161,125.550786 53.9902329,126.216795 54.2871094,126.650391 C54.5839859,127.083987 55.0097629,127.300781 55.5644531,127.300781 C56.0253929,127.300781 56.4003892,127.150392 56.6894531,126.849609 C56.9785171,126.548827 57.1113282,126.167971 57.0878906,125.707031 C57.0488279,125.019528 56.6738317,124.371097 55.9628906,123.761719 L53.5957031,121.734375 C53.0332003,121.25781 52.6035171,120.759768 52.3066406,120.240234 C52.0097641,119.720701 51.8691405,119.089847 51.8847656,118.347656 C51.9160158,117.261713 52.2480437,116.421878 52.8808594,115.828125 C53.513675,115.234372 54.3769477,114.9375 55.4707031,114.9375 C56.5175834,114.9375 57.343747,115.279293 57.9492188,115.962891 C58.5546905,116.646488 58.9042964,117.519526 58.9980469,118.582031 L57.2636719,119.226562 C57.1621089,118.445309 56.9824232,117.849611 56.7246094,117.439453 C56.4667956,117.029295 56.0800807,116.824219 55.5644531,116.824219 C55.1503886,116.824219 54.8144544,116.960936 54.5566406,117.234375 C54.2988268,117.507814 54.1738281,117.843748 54.1816406,118.242188 C54.1816406,118.77344 54.4121071,119.242185 54.8730469,119.648438 L57.3339844,121.898438 C57.951175,122.437503 58.433592,122.996091 58.78125,123.574219 C59.128908,124.152347 59.3027344,124.843746 59.3027344,125.648438 C59.3027344,126.804693 58.9570347,127.685544 58.265625,128.291016 C57.5742153,128.896487 56.6386778,129.199219 55.4589844,129.199219 L55.4589844,129.199219 Z M61.3769531,113.074219 L61.3769531,110.378906 L63.9550781,110.378906 L63.9550781,113.074219 L61.3769531,113.074219 Z M61.3769531,129 L61.3769531,115.125 L63.9433594,115.125 L63.9433594,129 L61.3769531,129 Z M66.7324219,128.964844 L66.7324219,109.535156 L69.2988281,109.535156 L69.2988281,121.136719 L73.0605469,115.136719 L75.7441406,115.125 L72.4746094,120.5625 L75.6386719,129 L73.0839844,129 L70.4941406,121.886719 L69.2988281,123.679688 L69.2988281,128.964844 L66.7324219,128.964844 Z M81.9316406,129 L81.9316406,127.277344 L86.1855469,117.046875 L82.3652344,117.046875 L82.3652344,115.125 L88.9394531,115.125 L88.9394531,116.519531 L84.6855469,127.066406 L88.8457031,127.066406 L88.8457031,129 L81.9316406,129 Z M92.7714844,129.1875 C92.3808574,129.1875 92.0429702,129.10547 91.7578125,128.941406 C91.4726548,128.777343 91.2558601,128.552736 91.1074219,128.267578 C90.9589836,127.98242 90.8535159,127.683595 90.7910156,127.371094 C90.7285153,127.058592 90.6972656,126.718752 90.6972656,126.351562 L90.6972656,115.125 L93.2636719,115.125 L93.2636719,125.601562 C93.2636719,126.132815 93.3417961,126.527342 93.4980469,126.785156 C93.6542977,127.04297 93.9433573,127.171875 94.3652344,127.171875 C94.880862,127.171875 95.4785122,126.886722 96.1582031,126.316406 L96.1582031,115.125 L98.7246094,115.125 L98.7246094,129 L96.1582031,129 L96.1582031,127.628906 C95.0644477,128.667974 93.9355527,129.1875 92.7714844,129.1875 L92.7714844,129.1875 Z M104.560547,129.199219 C103.435541,129.199219 102.527347,128.845707 101.835938,128.138672 C101.144528,127.431637 100.748047,126.484381 100.646484,125.296875 L102.791016,124.652344 C102.892579,125.550786 103.091795,126.216795 103.388672,126.650391 C103.685548,127.083987 104.111325,127.300781 104.666016,127.300781 C105.126955,127.300781 105.501952,127.150392 105.791016,126.849609 C106.08008,126.548827 106.212891,126.167971 106.189453,125.707031 C106.15039,125.019528 105.775394,124.371097 105.064453,123.761719 L102.697266,121.734375 C102.134763,121.25781 101.70508,120.759768 101.408203,120.240234 C101.111327,119.720701 100.970703,119.089847 100.986328,118.347656 C101.017578,117.261713 101.349606,116.421878 101.982422,115.828125 C102.615238,115.234372 103.47851,114.9375 104.572266,114.9375 C105.619146,114.9375 106.445309,115.279293 107.050781,115.962891 C107.656253,116.646488 108.005859,117.519526 108.099609,118.582031 L106.365234,119.226562 C106.263671,118.445309 106.083986,117.849611 105.826172,117.439453 C105.568358,117.029295 105.181643,116.824219 104.666016,116.824219 C104.251951,116.824219 103.916017,116.960936 103.658203,117.234375 C103.400389,117.507814 103.275391,117.843748 103.283203,118.242188 C103.283203,118.77344 103.51367,119.242185 103.974609,119.648438 L106.435547,121.898438 C107.052737,122.437503 107.535155,122.996091 107.882812,123.574219 C108.23047,124.152347 108.404297,124.843746 108.404297,125.648438 C108.404297,126.804693 108.058597,127.685544 107.367188,128.291016 C106.675778,128.896487 105.74024,129.199219 104.560547,129.199219 L104.560547,129.199219 Z M114.720703,127.171875 C114.939454,127.171875 115.126952,127.132813 115.283203,127.054688 C115.439454,126.976562 115.568359,126.847657 115.669922,126.667969 C115.771485,126.48828 115.853515,126.304688 115.916016,126.117188 C115.978516,125.929687 116.023437,125.677736 116.050781,125.361328 C116.078125,125.04492 116.095703,124.757814 116.103516,124.5 C116.111328,124.242186 116.115234,123.914064 116.115234,123.515625 L116.115234,120.152344 C116.115234,119.761717 116.105469,119.425783 116.085938,119.144531 C116.066406,118.86328 116.027344,118.576173 115.96875,118.283203 C115.910156,117.990233 115.828126,117.751954 115.722656,117.568359 C115.617187,117.384765 115.472657,117.236329 115.289062,117.123047 C115.105468,117.009765 114.884767,116.953125 114.626953,116.953125 C114.041013,116.953125 113.458987,117.191404 112.880859,117.667969 L112.880859,126.5625 C113.443362,126.968752 114.056637,127.171875 114.720703,127.171875 L114.720703,127.171875 Z M110.314453,133.570312 L110.314453,115.125 L112.880859,115.125 L112.880859,116.238281 C113.615238,115.371089 114.494136,114.9375 115.517578,114.9375 C115.978518,114.9375 116.390623,115.02539 116.753906,115.201172 C117.117189,115.376954 117.408202,115.619139 117.626953,115.927734 C117.845704,116.23633 118.031249,116.564451 118.183594,116.912109 C118.335938,117.259767 118.445312,117.646482 118.511719,118.072266 C118.578125,118.498049 118.623047,118.867186 118.646484,119.179688 C118.669922,119.492189 118.681641,119.816405 118.681641,120.152344 L118.681641,123.503906 C118.681641,127.3008 117.533215,129.199219 115.236328,129.199219 C114.408199,129.199219 113.623051,128.789067 112.880859,127.96875 L112.880859,133.570312 L110.314453,133.570312 Z M121.189453,113.074219 L121.189453,110.378906 L123.767578,110.378906 L123.767578,113.074219 L121.189453,113.074219 Z M121.189453,129 L121.189453,115.125 L123.755859,115.125 L123.755859,129 L121.189453,129 Z M128.818359,120.714844 L131.759766,120.714844 L131.759766,119.460938 C131.759766,119.093748 131.75,118.785157 131.730469,118.535156 C131.710937,118.285155 131.671875,118.04297 131.613281,117.808594 C131.554687,117.574218 131.47461,117.390626 131.373047,117.257812 C131.271484,117.124999 131.132813,117.019532 130.957031,116.941406 C130.781249,116.863281 130.568361,116.824219 130.318359,116.824219 C129.708981,116.824219 129.306642,117.042967 129.111328,117.480469 C128.916015,117.917971 128.818359,118.746088 128.818359,119.964844 L128.818359,120.714844 Z M130.353516,129.199219 C129.541012,129.199219 128.865237,129.083986 128.326172,128.853516 C127.787107,128.623046 127.367189,128.263674 127.066406,127.775391 C126.765623,127.287107 126.554688,126.7168 126.433594,126.064453 C126.312499,125.412106 126.251953,124.60938 126.251953,123.65625 L126.251953,120.480469 C126.251953,119.519526 126.316406,118.708988 126.445312,118.048828 C126.574219,117.388669 126.791014,116.818362 127.095703,116.337891 C127.400392,115.857419 127.82031,115.503907 128.355469,115.277344 C128.890628,115.05078 129.55273,114.9375 130.341797,114.9375 C130.833987,114.9375 131.271482,114.984375 131.654297,115.078125 C132.037111,115.171875 132.367186,115.30078 132.644531,115.464844 C132.921876,115.628907 133.158202,115.849608 133.353516,116.126953 C133.548829,116.404298 133.707031,116.697264 133.828125,117.005859 C133.949219,117.314455 134.044922,117.689451 134.115234,118.130859 C134.185547,118.572268 134.232422,119.011717 134.255859,119.449219 C134.279297,119.886721 134.291016,120.398435 134.291016,120.984375 L134.279297,122.109375 L128.818359,122.109375 L128.818359,123.960938 L128.818359,124.113281 C128.818359,124.503908 128.820312,124.792968 128.824219,124.980469 C128.828125,125.16797 128.84375,125.412108 128.871094,125.712891 C128.898438,126.013673 128.943359,126.238281 129.005859,126.386719 C129.06836,126.535157 129.154296,126.691405 129.263672,126.855469 C129.373047,127.019532 129.515624,127.134765 129.691406,127.201172 C129.867188,127.267578 130.080077,127.300781 130.330078,127.300781 C130.884768,127.300781 131.261718,127.11133 131.460938,126.732422 C131.660157,126.353514 131.759766,125.781254 131.759766,125.015625 L131.759766,124.171875 L134.267578,124.171875 L134.267578,124.710938 C134.267578,127.70314 132.962904,129.199219 130.353516,129.199219 L130.353516,129.199219 Z M136.845703,129 L136.845703,109.570312 L139.423828,109.570312 L139.423828,129 L136.845703,129 Z M144.416016,120.714844 L147.357422,120.714844 L147.357422,119.460938 C147.357422,119.093748 147.347656,118.785157 147.328125,118.535156 C147.308594,118.285155 147.269532,118.04297 147.210938,117.808594 C147.152343,117.574218 147.072266,117.390626 146.970703,117.257812 C146.86914,117.124999 146.73047,117.019532 146.554688,116.941406 C146.378905,116.863281 146.166017,116.824219 145.916016,116.824219 C145.306638,116.824219 144.904298,117.042967 144.708984,117.480469 C144.513671,117.917971 144.416016,118.746088 144.416016,119.964844 L144.416016,120.714844 Z M145.951172,129.199219 C145.138668,129.199219 144.462893,129.083986 143.923828,128.853516 C143.384763,128.623046 142.964845,128.263674 142.664062,127.775391 C142.36328,127.287107 142.152344,126.7168 142.03125,126.064453 C141.910156,125.412106 141.849609,124.60938 141.849609,123.65625 L141.849609,120.480469 C141.849609,119.519526 141.914062,118.708988 142.042969,118.048828 C142.171876,117.388669 142.38867,116.818362 142.693359,116.337891 C142.998048,115.857419 143.417966,115.503907 143.953125,115.277344 C144.488284,115.05078 145.150387,114.9375 145.939453,114.9375 C146.431643,114.9375 146.869139,114.984375 147.251953,115.078125 C147.634768,115.171875 147.964842,115.30078 148.242188,115.464844 C148.519533,115.628907 148.755858,115.849608 148.951172,116.126953 C149.146485,116.404298 149.304687,116.697264 149.425781,117.005859 C149.546876,117.314455 149.642578,117.689451 149.712891,118.130859 C149.783203,118.572268 149.830078,119.011717 149.853516,119.449219 C149.876953,119.886721 149.888672,120.398435 149.888672,120.984375 L149.876953,122.109375 L144.416016,122.109375 L144.416016,123.960938 L144.416016,124.113281 C144.416016,124.503908 144.417969,124.792968 144.421875,124.980469 C144.425781,125.16797 144.441406,125.412108 144.46875,125.712891 C144.496094,126.013673 144.541015,126.238281 144.603516,126.386719 C144.666016,126.535157 144.751953,126.691405 144.861328,126.855469 C144.970704,127.019532 145.11328,127.134765 145.289062,127.201172 C145.464845,127.267578 145.677733,127.300781 145.927734,127.300781 C146.482425,127.300781 146.859374,127.11133 147.058594,126.732422 C147.257813,126.353514 147.357422,125.781254 147.357422,125.015625 L147.357422,124.171875 L149.865234,124.171875 L149.865234,124.710938 C149.865234,127.70314 148.56056,129.199219 145.951172,129.199219 L145.951172,129.199219 Z M152.208984,129 L152.208984,115.125 L154.775391,115.125 L154.775391,116.496094 C155.869146,115.457026 156.998041,114.9375 158.162109,114.9375 C158.552736,114.9375 158.890624,115.01953 159.175781,115.183594 C159.460939,115.347657 159.677734,115.572264 159.826172,115.857422 C159.97461,116.14258 160.080078,116.441405 160.142578,116.753906 C160.205078,117.066408 160.236328,117.406248 160.236328,117.773438 L160.236328,129 L157.669922,129 L157.669922,118.523438 C157.669922,117.992185 157.591798,117.597658 157.435547,117.339844 C157.279296,117.08203 156.990236,116.953125 156.568359,116.953125 C156.052732,116.953125 155.455082,117.238278 154.775391,117.808594 L154.775391,129 L152.208984,129 Z" id="Drüecke-OK-um-" fill="#D3D3D3" sketch:type="MSShapeGroup"></path>
        </g>
    </g>
</svg>