<svg id="right" xmlns="http://www.w3.org/2000/svg" viewBox="0 0 37 30">
  <defs>
    <style>
      .cls-1 {
        fill: #ef6062;
      }

      .cls-2 {
        fill: #922327;
      }

      .cls-3 {
        fill: #cc3e3e;
      }

      .cls-4 {
        fill: none;
        stroke: #922327;
      }

      .cls-4, .cls-5 {
        stroke-miterlimit: 10;
      }

      .cls-5 {
        fill: #fff;
        stroke: #ee5249;
        stroke-width: 3px;
      }
    </style>
  </defs>
  <title>knob</title>
  <g>
    <rect class="cls-1" x="0.25" y="0.25" width="36.5" height="29.5" rx="10.06" ry="10.06"/>
    <path class="cls-2" d="M26.69,0.5a9.82,9.82,0,0,1,9.81,9.81v9.39a9.82,9.82,0,0,1-9.81,9.81H10.31A9.82,9.82,0,0,1,.5,19.69V10.31A9.82,9.82,0,0,1,10.31.5H26.69m0-.5H10.31A10.31,10.31,0,0,0,0,10.31v9.39A10.31,10.31,0,0,0,10.31,30H26.69A10.31,10.31,0,0,0,37,19.69V10.31A10.31,10.31,0,0,0,26.69,0h0Z"/>
  </g>
  <g>
    <path class="cls-3" d="M10.31,29.75A10.07,10.07,0,0,1,.25,19.69V10.31A10.07,10.07,0,0,1,10.31.25h8.14v29.5H10.31Z"/>
    <path class="cls-2" d="M18.19,0.5v29H10.31A9.82,9.82,0,0,1,.5,19.69V10.31A9.82,9.82,0,0,1,10.31.5h7.89m0.5-.5H10.31A10.31,10.31,0,0,0,0,10.31v9.39A10.31,10.31,0,0,0,10.31,30h8.39V0h0Z"/>
  </g>
  <line class="cls-4" x1="18.5" x2="18.5" y2="30"/>
  <circle class="cls-2" cx="18.69" cy="15" r="9.24"/>
  <circle class="cls-5" cx="18.69" cy="15" r="5.84"/>
</svg>
