<svg id="Layer_1" data-name="Layer 1" xmlns="http://www.w3.org/2000/svg" viewBox="0 0 45 45">
  <defs>
    <style>
      .cls-1 {
        fill: none;
      }

      .cls-2 {
        fill: #fffefe;
      }

      .cls-3 {
        fill: #fff;
      }
    </style>
  </defs>
  <title>mp3</title>
  <rect class="cls-1" width="45" height="45"/>
  <rect class="cls-1" width="45" height="45"/>
  <g>
    <polygon class="cls-2" points="22.5 22.31 29.38 15.44 25.25 15.44 25.25 7.19 19.75 7.19 19.77 15.44 15.63 15.44 22.5 22.31"/>
    <polygon class="cls-2" points="28 22.31 28 25.06 17 25.06 17 22.31 14.25 22.31 14.25 25.06 14.25 27.81 30.75 27.81 30.75 22.31 28 22.31"/>
  </g>
  <g>
    <path class="cls-3" d="M201.24,36.38a2.53,2.53,0,0,1-.42,1.56,1.47,1.47,0,0,1-1.24.55h-1.06V34.25h1.07a1.45,1.45,0,0,1,1.24.56A2.55,2.55,0,0,1,201.24,36.38Zm-0.72,0a2.86,2.86,0,0,0-.07-0.66,1.46,1.46,0,0,0-.2-0.47A0.84,0.84,0,0,0,200,35a0.79,0.79,0,0,0-.38-0.09h-0.34v3h0.34a0.79,0.79,0,0,0,.38-0.09,0.84,0.84,0,0,0,.3-0.28,1.47,1.47,0,0,0,.2-0.46A2.8,2.8,0,0,0,200.52,36.38Z" transform="translate(-195)"/>
    <path class="cls-3" d="M204.79,36.37a3.78,3.78,0,0,1-.1.92,2.29,2.29,0,0,1-.3.71,1.46,1.46,0,0,1-.48.46,1.35,1.35,0,0,1-1.28,0,1.45,1.45,0,0,1-.48-0.46,2.25,2.25,0,0,1-.3-0.71,4.12,4.12,0,0,1,0-1.83,2.19,2.19,0,0,1,.3-0.7,1.41,1.41,0,0,1,.48-0.45,1.37,1.37,0,0,1,1.28,0,1.43,1.43,0,0,1,.48.45,2.28,2.28,0,0,1,.3.7A3.75,3.75,0,0,1,204.79,36.37Zm-0.74,0a3.36,3.36,0,0,0-.05-0.61,2,2,0,0,0-.15-0.49,0.94,0.94,0,0,0-.25-0.33,0.52,0.52,0,0,0-.34-0.12,0.53,0.53,0,0,0-.35.12,0.94,0.94,0,0,0-.25.33,2,2,0,0,0-.15.49,4,4,0,0,0,0,1.22,2,2,0,0,0,.15.5,0.93,0.93,0,0,0,.25.33,0.56,0.56,0,0,0,.69,0,0.93,0.93,0,0,0,.25-0.33A1.92,1.92,0,0,0,204,37,3.74,3.74,0,0,0,204.05,36.37Z" transform="translate(-195)"/>
    <path class="cls-3" d="M208.76,38.5h-0.83l-0.59-3.19h0l-0.59,3.19h-0.83l-0.81-4.25h0.73l0.54,3.3h0l0.57-3.3h0.76l0.59,3.3h0l0.54-3.3h0.7Z" transform="translate(-195)"/>
    <path class="cls-3" d="M211.94,38.5l-1.21-3h0v3h-0.65V34.25h0.82l1.19,3h0v-3h0.63V38.5h-0.79Z" transform="translate(-195)"/>
    <path class="cls-3" d="M213.6,38.5V34.25h0.73v3.58h1.17V38.5h-1.9Z" transform="translate(-195)"/>
    <path class="cls-3" d="M218.65,36.37a3.78,3.78,0,0,1-.1.92,2.29,2.29,0,0,1-.3.71,1.46,1.46,0,0,1-.48.46,1.35,1.35,0,0,1-1.28,0A1.45,1.45,0,0,1,216,38a2.25,2.25,0,0,1-.3-0.71,4.12,4.12,0,0,1,0-1.83,2.19,2.19,0,0,1,.3-0.7,1.41,1.41,0,0,1,.48-0.45,1.37,1.37,0,0,1,1.28,0,1.43,1.43,0,0,1,.48.45,2.28,2.28,0,0,1,.3.7A3.75,3.75,0,0,1,218.65,36.37Zm-0.74,0a3.36,3.36,0,0,0-.05-0.61,2,2,0,0,0-.15-0.49,0.94,0.94,0,0,0-.25-0.33,0.52,0.52,0,0,0-.34-0.12,0.53,0.53,0,0,0-.35.12,0.94,0.94,0,0,0-.25.33,2,2,0,0,0-.15.49,4,4,0,0,0,0,1.22,2,2,0,0,0,.15.5,0.93,0.93,0,0,0,.25.33,0.56,0.56,0,0,0,.69,0,0.93,0.93,0,0,0,.25-0.33,1.92,1.92,0,0,0,.15-0.5A3.74,3.74,0,0,0,217.91,36.37Z" transform="translate(-195)"/>
    <path class="cls-3" d="M221.13,38.5l-0.21-.9h-1.12l-0.22.9h-0.72l1.06-4.25h0.92l1,4.25h-0.75Zm-0.75-3.57h0L219.9,37h0.94Z" transform="translate(-195)"/>
    <path class="cls-3" d="M225.06,36.38a2.54,2.54,0,0,1-.42,1.56,1.47,1.47,0,0,1-1.25.55h-1.06V34.25h1.07a1.46,1.46,0,0,1,1.24.56A2.56,2.56,0,0,1,225.06,36.38Zm-0.72,0a2.75,2.75,0,0,0-.07-0.66,1.42,1.42,0,0,0-.2-0.47,0.85,0.85,0,0,0-.3-0.28,0.8,0.8,0,0,0-.38-0.09h-0.34v3h0.34a0.8,0.8,0,0,0,.38-0.09,0.85,0.85,0,0,0,.3-0.28,1.42,1.42,0,0,0,.2-0.46A2.69,2.69,0,0,0,224.34,36.38Z" transform="translate(-195)"/>
    <path class="cls-3" d="M229.83,38.5V35.24h0L229,38.5H228.4l-0.83-3.26h0V38.5h-0.65V34.25h1l0.82,3.11h0l0.8-3.11h1V38.5h-0.7Z" transform="translate(-195)"/>
    <path class="cls-3" d="M233.76,35.51a1.49,1.49,0,0,1-.1.57,1.18,1.18,0,0,1-.26.4,1,1,0,0,1-.37.24,1.2,1.2,0,0,1-.43.08h-0.5v1.7h-0.71V34.25h1.17a1.61,1.61,0,0,1,.42.06,1,1,0,0,1,.38.21,1.14,1.14,0,0,1,.28.39A1.42,1.42,0,0,1,233.76,35.51Zm-0.68,0a0.66,0.66,0,0,0-.16-0.5,0.58,0.58,0,0,0-.41-0.16H232.1v1.34h0.41a0.54,0.54,0,0,0,.41-0.18A0.74,0.74,0,0,0,233.08,35.51Z" transform="translate(-195)"/>
    <path class="cls-3" d="M236.61,37.3a1.44,1.44,0,0,1-.09.52,1.22,1.22,0,0,1-.25.41,1.09,1.09,0,0,1-.39.26,1.36,1.36,0,0,1-.51.09,1.33,1.33,0,0,1-.81-0.24,1.23,1.23,0,0,1-.45-0.72l0.64-.17a0.79,0.79,0,0,0,.21.37,0.59,0.59,0,0,0,.64.08,0.56,0.56,0,0,0,.18-0.16,0.69,0.69,0,0,0,.11-0.22,1,1,0,0,0,0-.25,0.66,0.66,0,0,0-.19-0.52,0.71,0.71,0,0,0-.5-0.17H235V36h0.2a0.55,0.55,0,0,0,.43-0.17,0.68,0.68,0,0,0,.16-0.48,0.86,0.86,0,0,0,0-.21,0.55,0.55,0,0,0-.09-0.19,0.47,0.47,0,0,0-.16-0.14,0.45,0.45,0,0,0-.23-0.05,0.41,0.41,0,0,0-.29.11,0.76,0.76,0,0,0-.19.29L234.23,35a1.24,1.24,0,0,1,.2-0.38,1.15,1.15,0,0,1,.61-0.41,1.3,1.3,0,0,1,.35,0,1.27,1.27,0,0,1,.44.08,1.07,1.07,0,0,1,.36.22,1,1,0,0,1,.25.35,1.16,1.16,0,0,1,.09.47,1.2,1.2,0,0,1-.16.63,0.73,0.73,0,0,1-.46.35v0a0.88,0.88,0,0,1,.52.36A1.14,1.14,0,0,1,236.61,37.3Z" transform="translate(-195)"/>
  </g>
</svg>
