<svg id="Layer_1" data-name="Layer 1" xmlns="http://www.w3.org/2000/svg" viewBox="0 0 45 45">
  <defs>
    <style>
      .cls-1 {
        fill: none;
      }

      .cls-2 {
        fill: #fff;
      }
    </style>
  </defs>
  <title>soundcloud</title>
  <rect class="cls-1" width="45" height="45"/>
  <path class="cls-2" d="M260.76,21.36a0.19,0.19,0,0,0-.18.18L260.25,24l0.33,2.46a0.19,0.19,0,0,0,.18.18,0.19,0.19,0,0,0,.18-0.17h0L261.33,24l-0.39-2.5A0.19,0.19,0,0,0,260.76,21.36ZM262.61,20a0.19,0.19,0,0,0-.37,0l-0.44,4,0.44,4a0.19,0.19,0,0,0,.37,0l0.5-4Zm7-3.73a0.35,0.35,0,0,0-.34.34L268.89,24l0.35,4.81a0.34,0.34,0,0,0,.68,0h0l0.4-4.81-0.4-7.44A0.35,0.35,0,0,0,269.58,16.27ZM266,18.85a0.27,0.27,0,0,0-.26.26L265.31,24l0.4,4.77a0.26,0.26,0,0,0,.53,0L266.69,24l-0.45-4.93A0.27,0.27,0,0,0,266,18.85Zm7.27,10.33a0.42,0.42,0,0,0,.42-0.41L274,24l-0.35-9.9a0.42,0.42,0,0,0-.83,0L272.52,24l0.31,4.73A0.42,0.42,0,0,0,273.25,29.18Zm7.51,0a0.58,0.58,0,0,0,.57-0.57h0L281.57,24l-0.24-11.43a0.57,0.57,0,0,0-1.14,0L280,24l0.22,4.6A0.58,0.58,0,0,0,280.75,29.2Zm-3.78,0a0.5,0.5,0,0,0,.49-0.49h0L277.76,24l-0.29-10a0.49,0.49,0,0,0-1,0l-0.26,10,0.26,4.65A0.49,0.49,0,0,0,277,29.19Zm-9.2,0a0.31,0.31,0,0,0,.3-0.3L268.5,24l-0.42-4.57a0.3,0.3,0,0,0-.6,0L267.09,24l0.37,4.81A0.31,0.31,0,0,0,267.77,29.14Zm-3.58-.26a0.23,0.23,0,0,0,.23-0.22L264.89,24l-0.48-4.79a0.23,0.23,0,0,0-.23-0.22,0.23,0.23,0,0,0-.23.22L263.55,24,264,28.66A0.23,0.23,0,0,0,264.19,28.88Zm14.66-15a0.53,0.53,0,0,0-.53.53L278.08,24l0.24,4.62a0.53,0.53,0,0,0,1.07,0h0L279.65,24l-0.27-9.61A0.53,0.53,0,0,0,278.86,13.91Zm-7.45,15.28a0.39,0.39,0,0,0,.38-0.38L272.16,24l-0.37-9.14a0.38,0.38,0,0,0-.76,0L270.7,24,271,28.82A0.38,0.38,0,0,0,271.41,29.19Zm4.15-.45h0L275.88,24l-0.32-10.23a0.46,0.46,0,0,0-.91,0L274.36,24l0.28,4.7a0.46,0.46,0,0,0,.91,0h0Zm24.16-10.6a5.53,5.53,0,0,0-2.14.43,9.77,9.77,0,0,0-9.73-8.9,9.89,9.89,0,0,0-3.54.66,0.63,0.63,0,0,0-.53.65V28.55a0.67,0.67,0,0,0,.6.65h15.34A5.54,5.54,0,0,0,299.72,18.15ZM282.64,11a0.62,0.62,0,0,0-.61.61L281.78,24,282,28.57a0.61,0.61,0,0,0,1.22,0h0L283.52,24l-0.27-12.47A0.62,0.62,0,0,0,282.64,11ZM264.72,32.74c-0.65-.15-0.83-0.24-0.83-0.5s0.15-.37.59-0.37a1.26,1.26,0,0,1,.94.42l0.6-.58a2,2,0,0,0-1.5-.65A1.31,1.31,0,0,0,263,32.28c0,0.81.53,1.06,1.29,1.23s0.92,0.3.92,0.56-0.23.45-.72,0.45a1.34,1.34,0,0,1-1.06-.47l-0.6.53a1.92,1.92,0,0,0,1.6.75c1.13,0,1.62-.53,1.62-1.32A1.37,1.37,0,0,0,264.72,32.74Zm3.8-1.67a1.86,1.86,0,0,0-1.79,2.13,1.82,1.82,0,1,0,3.59,0A1.86,1.86,0,0,0,268.52,31.07Zm0,3.44a1.07,1.07,0,0,1-.94-1.31,1,1,0,1,1,1.89,0A1.07,1.07,0,0,1,268.52,34.51Zm5.13-1.06a0.87,0.87,0,1,1-1.69,0V31.13h-0.83v2.32a1.68,1.68,0,1,0,3.35,0V31.13h-0.83v2.32Zm4.39-.57c0,0.23,0,.75,0,0.9-0.05-.11-0.19-0.31-0.29-0.47l-1.46-2.18h-0.79v4.13h0.81V33.44c0-.23,0-0.75,0-0.9,0.05,0.11.19,0.31,0.29,0.47l1.52,2.25h0.74V31.13H278v1.75Zm3.17-1.75h-1.29v4.13h1.23a2,2,0,0,0,2.11-2.07A1.84,1.84,0,0,0,281.21,31.13Zm-0.06,3.33h-0.41V31.93h0.44a1.08,1.08,0,0,1,1.23,1.26A1.14,1.14,0,0,1,281.15,34.46Zm4.67-2.57a0.79,0.79,0,0,1,.76.45l0.77-.35a1.56,1.56,0,0,0-1.51-.91A1.91,1.91,0,0,0,284,33.2a1.86,1.86,0,0,0,1.81,2.13,1.58,1.58,0,0,0,1.53-.93l-0.7-.41a0.86,0.86,0,0,1-.81.53,1.12,1.12,0,0,1-1-1.31A1.1,1.1,0,0,1,285.81,31.89Zm3.06-.76h-0.83v4.13h2.48V34.45h-1.66V31.13Zm3.83-.06a1.86,1.86,0,0,0-1.79,2.13,1.82,1.82,0,1,0,3.59,0A1.86,1.86,0,0,0,292.71,31.07Zm0,3.44a1.07,1.07,0,0,1-.94-1.31,1,1,0,1,1,1.89,0A1.07,1.07,0,0,1,292.71,34.51Zm5.13-1.06a0.87,0.87,0,1,1-1.69,0V31.13h-0.83v2.32a1.68,1.68,0,1,0,3.35,0V31.13h-0.83v2.32ZM301,31.13H299.7v4.13h1.23A2,2,0,0,0,303,33.2,1.84,1.84,0,0,0,301,31.13Zm-0.06,3.33h-0.41V31.93H301a1.08,1.08,0,0,1,1.23,1.26A1.14,1.14,0,0,1,300.93,34.46Z" transform="translate(-260.25)"/>
</svg>
