<?xml version="1.0" encoding="utf-8"?>
<!-- Generator: Adobe Illustrator 19.2.0, SVG Export Plug-In . SVG Version: 6.00 Build 0)  -->
<svg version="1.1" xmlns="http://www.w3.org/2000/svg" xmlns:xlink="http://www.w3.org/1999/xlink" x="0px" y="0px"
	 viewBox="0 0 238.5 101" style="enable-background:new 0 0 238.5 101;" xml:space="preserve">
<style type="text/css">
	.st0{fill:#B3FFA1;stroke:#000000;stroke-miterlimit:10;}
	.st1{fill:none;stroke:#86754D;stroke-width:3;stroke-miterlimit:10;}
	.st2{fill:none;stroke:#86754D;stroke-linecap:round;stroke-linejoin:round;}
	.st3{fill:#FFFFFF;}
	.st4{fill:none;stroke:#86754D;stroke-width:3;stroke-linecap:round;stroke-linejoin:round;}
	.st5{clip-path:url(#SVGID_2_);}
	.st6{fill:none;stroke:#86754D;stroke-miterlimit:10;}
	.st7{clip-path:url(#SVGID_4_);}
	.st8{fill:#86754D;}
	.st9{fill:none;stroke:#86754D;stroke-width:13;stroke-linecap:round;stroke-linejoin:round;}
	.st10{clip-path:url(#SVGID_8_);}
	.st11{fill:#AD3683;stroke:#86754D;stroke-miterlimit:10;}
</style>
<g id="Layer_2">
	<rect class="st0" width="238.5" height="101"/>
</g>
<g id="Layer_1">
	<title>cartridge</title>
	<path class="st1" d="M238.5,21.4c-17.3,0.5-38.8,0.3-61,0.1l-14.4-0.1c-6.1,0-11,4.8-11.1,10.9s4.8,11,10.9,11.1l14.4,0.1
		c22.2,0.2,43.6,0.3,61.2-0.1"/>
	<path class="st2" d="M238.5,38.7c-20.3,0.4-45.3,0.1-72.2,0"/>
	<rect x="122.3" y="14.6" class="st3" width="6.1" height="31.2"/>
	<rect x="122.3" y="14.6" class="st4" width="6.1" height="31.2"/>
	<g>
		<defs>
			
				<rect id="SVGID_1_" x="10.7" y="-48.1" transform="matrix(0.6232 -0.7821 0.7821 0.6232 5.9906 74.7301)" width="139.8" height="158.4"/>
		</defs>
		<clipPath id="SVGID_2_">
			<use xlink:href="#SVGID_1_"  style="overflow:visible;"/>
		</clipPath>
		<g class="st5">
			<path class="st3" d="M128.4,46.2V14.1c0-1.6,1.3-2.8,2.8-2.8h33.1c1.6,0,2.8,1.3,2.8,2.8v32.1c0,1.6-1.3,2.8-2.8,2.8h-33.1
				C129.6,49,128.4,47.7,128.4,46.2"/>
			<path class="st1" d="M131.2,11.3h33.1c1.6,0,2.8,1.3,2.8,2.8v32.1c0,1.6-1.3,2.8-2.8,2.8h-33.1c-1.6,0-2.8-1.3-2.8-2.8V14.1
				C128.4,12.5,129.6,11.3,131.2,11.3z"/>
			<path class="st3" d="M146.6,49.2l-0.1-38.3c0-1.6,1.3-2.8,2.8-2.8h7.6c1.6,0,2.8,1.3,2.8,2.8l0.1,38.3c0,1.6-1.3,2.8-2.8,2.8
				h-7.6C147.9,52,146.6,50.7,146.6,49.2"/>
			<path class="st1" d="M146.6,49.2l-0.1-38.3c0-1.6,1.3-2.8,2.8-2.8h7.6c1.6,0,2.8,1.3,2.8,2.8l0.1,38.3c0,1.6-1.3,2.8-2.8,2.8
				h-7.6C147.9,52,146.6,50.7,146.6,49.2z"/>
		</g>
	</g>
	<path class="st6" d="M159.9,48.7l-13.2,0.1l2.6,3.3h7.6l2.8-2.8l4.4-0.1l2.8-4.8h71.3 M159.9,45.5l-13.2,0.1 M159.9,42.4l-13.2,0.1
		 M159.9,39.3l-13.2,0.1 M159.9,36.1l-13.2,0.1 M159.9,33l-13.2,0.1 M159.8,29.9L146.7,30 M159.8,26.8l-13.2,0.1 M159.8,23.7
		l-13.2,0.1 M159.8,20.5l-13.2,0.1 M159.8,17.4l-13.2,0.1 M159.8,14.3l-13.2,0.1 M148.6,7.7h9.5l1.6,3.5l-13.2,0.1h-15.9l-2.3,3.4
		h-6.1l-2.9-3.3l-56.9,0l-2.8-2.8v-6l-54.2,0 M149.6,8.2l0.2,43.8 M153,8.2l0.2,43.8 M156.4,8.3l0.2,43.7"/>
	<g>
		<defs>
			
				<rect id="SVGID_3_" x="10.7" y="-48.1" transform="matrix(0.6232 -0.7821 0.7821 0.6232 5.9906 74.7301)" width="139.8" height="158.4"/>
		</defs>
		<clipPath id="SVGID_4_">
			<use xlink:href="#SVGID_3_"  style="overflow:visible;"/>
		</clipPath>
		<g class="st7">
			<path class="st8" d="M59.6,51.9c0-1.6,1.2-2.9,2.8-2.9c0,0,0,0,0,0h56.9c1.6,0,2.8-1.3,2.8-2.8v-32c0-1.6-1.3-2.8-2.8-2.8H62.5
				c-1.6,0-2.8-1.3-2.8-2.8v-6l-54.2,0c-1.6,0-2.8,1.3-2.8,2.8v49.8c0,1.6,1.3,2.8,2.8,2.8h54.2V51.9L59.6,51.9z"/>
			<path class="st4" d="M59.6,51.9c0-1.6,1.2-2.9,2.8-2.9c0,0,0,0,0,0h56.9c1.6,0,2.8-1.3,2.8-2.8v-32c0-1.6-1.3-2.8-2.8-2.8H62.5
				c-1.6,0-2.8-1.3-2.8-2.8v-6l-54.2,0c-1.6,0-2.8,1.3-2.8,2.8v49.8c0,1.6,1.3,2.8,2.8,2.8h54.2V51.9L59.6,51.9z"/>
			<path class="st2" d="M75.9,41.6c-6.3,0-11.5-5.1-11.5-11.5c0-6.3,5.1-11.5,11.5-11.5c6.3,0,11.5,5.1,11.5,11.4
				C87.3,36.5,82.2,41.6,75.9,41.6C75.9,41.6,75.9,41.6,75.9,41.6z M104.3,41.6c-6.3,0-11.5-5.1-11.5-11.5c0-6.3,5.1-11.5,11.5-11.5
				c6.3,0,11.5,5.1,11.5,11.4C115.8,36.5,110.7,41.6,104.3,41.6L104.3,41.6z"/>
		</g>
	</g>
	<path class="st9" d="M86.1,30.2H65.6 M114.8,30.2H94.3"/>
	<g>
		<defs>
			
				<rect id="SVGID_5_" x="10.7" y="-48.1" transform="matrix(0.6232 -0.7821 0.7821 0.6232 5.9906 74.7301)" width="139.8" height="158.4"/>
		</defs>
		<clipPath id="SVGID_6_">
			<use xlink:href="#SVGID_5_"  style="overflow:visible;"/>
		</clipPath>
	</g>
	<polygon class="st8" points="74.9,98.9 73.9,49.7 78.2,49.7 77.2,98.9 	"/>
	<polygon class="st4" points="74.9,98.9 73.9,49.7 78.2,49.7 77.2,98.9 	"/>
	<g>
		<defs>
			
				<rect id="SVGID_7_" x="10.7" y="-48.1" transform="matrix(0.6232 -0.7821 0.7821 0.6232 5.9906 74.7301)" width="139.8" height="158.4"/>
		</defs>
		<clipPath id="SVGID_8_">
			<use xlink:href="#SVGID_7_"  style="overflow:visible;"/>
		</clipPath>
		<g class="st10">
			<circle class="st6" cx="38.5" cy="13.1" r="6.4"/>
		</g>
	</g>
	<line class="st6" x1="35.9" y1="7.7" x2="41.2" y2="18.7"/>
	<g>
		<defs>
			
				<rect id="SVGID_9_" x="10.7" y="-48.1" transform="matrix(0.6232 -0.7821 0.7821 0.6232 5.9906 74.7301)" width="139.8" height="158.4"/>
		</defs>
		<clipPath id="SVGID_10_">
			<use xlink:href="#SVGID_9_"  style="overflow:visible;"/>
		</clipPath>
	</g>
	<line class="st6" x1="32.6" y1="45.8" x2="44.6" y2="48.4"/>
	<path class="st3" d="M165,11l2.2,3.1v7.3h71.3c-17.3,0.5-38.8,0.3-61,0.1l-14.4-0.1c-6.1,0-11,4.8-11.1,10.9s4.8,11,10.9,11.1
		l14.4,0.1c22.2,0.2,43.6,0.3,61.2-0.1"/>
	<polyline class="st11" points="131.2,49 128.3,45.7 122.3,45.7 119.4,49 78.2,49 77.2,98.9 74.9,98.9 73.9,49 61.9,49.1 59.6,51.9 
		59.6,57.9 5.4,57.9 2.6,55.1 2.6,5.3 5.4,2.4 59.6,2.5 59.6,8.5 	"/>
</g>
<g id="Layer_3">
</g>
</svg>
