<?xml version="1.0" encoding="UTF-8" standalone="no"?>
<svg width="239px" height="182px" viewBox="0 0 239 182" version="1.1" xmlns="http://www.w3.org/2000/svg" xmlns:xlink="http://www.w3.org/1999/xlink" xmlns:sketch="http://www.bohemiancoding.com/sketch/ns">
    <!-- Generator: Sketch 3.4.2 (15855) - http://www.bohemiancoding.com/sketch -->
    <title>top</title>
    <desc>Created with Sketch.</desc>
    <defs></defs>
    <g id="Page-2" stroke="none" stroke-width="1" fill="none" fill-rule="evenodd" sketch:type="MSPage">
        <g id="top" sketch:type="MSLayerGroup" transform="translate(0.000000, 1.000000)">
            <path d="M220,160 C220,160 273.903403,89 191.964973,1 M192.186843,18.9086352 L191.464322,0.601968322 L205.738673,5.51690758" id="Path-4" stroke="#979797" stroke-width="2" sketch:type="MSShapeGroup"></path>
            <path d="M6.63085938,144 L6.63085938,124.570312 L8.47070312,124.570312 L13.9902344,137.472656 L13.9902344,124.570312 L16.2519531,124.570312 L16.2519531,144 L14.5175781,144 L8.91601562,130.722656 L8.91601562,144 L6.63085938,144 Z M22.5800781,141.972656 C22.9082048,141.972656 23.2304672,141.843751 23.546875,141.585938 C23.8632828,141.328124 24.0996086,141.07422 24.2558594,140.824219 L24.2558594,136.898438 C23.3574174,137.406253 22.7636733,137.781249 22.4746094,138.023438 C21.7246056,138.632816 21.3496094,139.355465 21.3496094,140.191406 C21.3496094,140.753909 21.4550771,141.191405 21.6660156,141.503906 C21.8769542,141.816408 22.1816386,141.972656 22.5800781,141.972656 L22.5800781,141.972656 Z M21.5605469,144.199219 C20.7714804,144.199219 20.1093777,143.87305 19.5742188,143.220703 C19.0390598,142.568356 18.7714844,141.820317 18.7714844,140.976562 C18.7714844,140.320309 18.8789052,139.724612 19.09375,139.189453 C19.3085948,138.654294 19.5371082,138.222658 19.7792969,137.894531 C20.0214856,137.566405 20.4414033,137.224611 21.0390625,136.869141 C21.6367217,136.51367 22.0996077,136.261719 22.4277344,136.113281 C22.755861,135.964843 23.330074,135.722658 24.1503906,135.386719 C24.1972659,135.363281 24.2324218,135.347656 24.2558594,135.339844 L24.2558594,134.34375 C24.2558594,133.445308 24.1640634,132.806643 23.9804688,132.427734 C23.7968741,132.048826 23.4238309,131.859375 22.8613281,131.859375 C21.8925733,131.859375 21.4082031,132.515618 21.4082031,133.828125 L21.4082031,134.519531 L18.8652344,134.425781 C18.8652344,134.285156 18.8730468,134.113282 18.8886719,133.910156 C18.9667973,132.527337 19.3535121,131.519534 20.0488281,130.886719 C20.7441441,130.253903 21.7402279,129.9375 23.0371094,129.9375 C24.3730536,129.9375 25.3378877,130.302731 25.9316406,131.033203 C26.5253936,131.763676 26.8222656,132.863274 26.8222656,134.332031 L26.8222656,140.671875 C26.8222656,141.718755 26.9003898,142.828119 27.0566406,144 L24.7128906,144 C24.5488273,143.226559 24.4355472,142.542972 24.3730469,141.949219 C24.1777334,142.574222 23.8437524,143.105467 23.3710938,143.542969 C22.8984351,143.980471 22.2949255,144.199219 21.5605469,144.199219 L21.5605469,144.199219 Z M33.0800781,144.199219 C32.4081998,144.199219 31.8320337,144.111329 31.3515625,143.935547 C30.8710913,143.759765 30.4824234,143.521486 30.1855469,143.220703 C29.8886704,142.91992 29.6542977,142.529299 29.4824219,142.048828 C29.310546,141.568357 29.1933597,141.066409 29.1308594,140.542969 C29.0683591,140.019529 29.0371094,139.398441 29.0371094,138.679688 L29.0371094,135.46875 C29.0371094,134.539058 29.0917963,133.757816 29.2011719,133.125 C29.3105474,132.492184 29.5097642,131.923831 29.7988281,131.419922 C30.0878921,130.916013 30.5019504,130.54297 31.0410156,130.300781 C31.5800808,130.058593 32.2597615,129.9375 33.0800781,129.9375 C33.8222693,129.9375 34.4433569,130.027343 34.9433594,130.207031 C35.4433619,130.38672 35.8320299,130.667967 36.109375,131.050781 C36.3867201,131.433596 36.5820307,131.88281 36.6953125,132.398438 C36.8085943,132.914065 36.8652344,133.546871 36.8652344,134.296875 L36.8652344,135.128906 L34.5449219,135.128906 L34.5449219,134.285156 C34.5449219,133.371089 34.4433604,132.732424 34.2402344,132.369141 C34.0371084,132.005858 33.6621121,131.824219 33.1152344,131.824219 C32.4902312,131.824219 32.0820322,132.041013 31.890625,132.474609 C31.6992178,132.908205 31.6035156,133.730463 31.6035156,134.941406 L31.6035156,139.3125 C31.6035156,140.484381 31.7109364,141.275389 31.9257812,141.685547 C32.1406261,142.095705 32.5410127,142.300781 33.1269531,142.300781 C33.3769544,142.300781 33.5898429,142.259766 33.765625,142.177734 C33.9414071,142.095703 34.0800776,141.990235 34.1816406,141.861328 C34.2832036,141.732421 34.3613279,141.558595 34.4160156,141.339844 C34.4707034,141.121093 34.5058593,140.904298 34.5214844,140.689453 C34.5371095,140.474608 34.5449219,140.207033 34.5449219,139.886719 L34.5449219,138.761719 L36.8652344,138.761719 L36.8652344,139.722656 C36.8652344,140.464847 36.8066412,141.097654 36.6894531,141.621094 C36.572265,142.144534 36.3730483,142.60742 36.0917969,143.009766 C35.8105455,143.412111 35.4218775,143.710937 34.9257812,143.90625 C34.429685,144.101563 33.8144568,144.199219 33.0800781,144.199219 L33.0800781,144.199219 Z M39.2089844,144 L39.2089844,124.570312 L41.7753906,124.570312 L41.7753906,131.566406 C42.9160213,130.480463 44.076166,129.9375 45.2558594,129.9375 C45.6464863,129.9375 45.9824205,130.01953 46.2636719,130.183594 C46.5449233,130.347657 46.7597649,130.572264 46.9082031,130.857422 C47.0566414,131.14258 47.1621091,131.441405 47.2246094,131.753906 C47.2871097,132.066408 47.3183594,132.406248 47.3183594,132.773438 L47.3183594,144 L44.7519531,144 L44.7519531,133.523438 C44.7519531,132.992185 44.675782,132.597658 44.5234375,132.339844 C44.371093,132.08203 44.0839865,131.953125 43.6621094,131.953125 C43.1308567,131.953125 42.5019568,132.257809 41.7753906,132.867188 L41.7753906,144 L39.2089844,144 Z M59.1074219,144.199219 C58.3496056,144.199219 57.7070339,144.082032 57.1796875,143.847656 C56.6523411,143.61328 56.2363296,143.265627 55.9316406,142.804688 C55.6269516,142.343748 55.4062507,141.81055 55.2695313,141.205078 C55.1328118,140.599606 55.0644531,139.890629 55.0644531,139.078125 L55.0644531,135.058594 C55.0644531,134.24609 55.1328118,133.537112 55.2695313,132.931641 C55.4062507,132.326169 55.6269516,131.792971 55.9316406,131.332031 C56.2363296,130.871091 56.6523411,130.523439 57.1796875,130.289062 C57.7070339,130.054686 58.3496056,129.9375 59.1074219,129.9375 C60.5683667,129.9375 61.6074188,130.374996 62.2246094,131.25 C62.8418,132.125004 63.1503906,133.394523 63.1503906,135.058594 L63.1503906,139.078125 C63.1503906,140.742196 62.8418,142.011714 62.2246094,142.886719 C61.6074188,143.761723 60.5683667,144.199219 59.1074219,144.199219 L59.1074219,144.199219 Z M59.1074219,142.300781 C59.341798,142.300781 59.5468741,142.265625 59.7226562,142.195312 C59.8984384,142.125 60.0371089,142.007813 60.1386719,141.84375 C60.2402349,141.679687 60.3222653,141.521485 60.3847656,141.369141 C60.4472659,141.216796 60.4921874,140.998048 60.5195312,140.712891 C60.5468751,140.427733 60.5625,140.197267 60.5664062,140.021484 C60.5703125,139.845702 60.5722656,139.585939 60.5722656,139.242188 L60.5722656,134.894531 C60.5722656,134.597655 60.5703125,134.375001 60.5664062,134.226562 C60.5625,134.078124 60.5527345,133.875001 60.5371094,133.617188 C60.5214843,133.359374 60.4960939,133.16211 60.4609375,133.025391 C60.4257811,132.888671 60.3730472,132.73047 60.3027344,132.550781 C60.2324215,132.371093 60.1445318,132.238282 60.0390625,132.152344 C59.9335932,132.066406 59.8027352,131.990235 59.6464844,131.923828 C59.4902336,131.857422 59.3105479,131.824219 59.1074219,131.824219 C58.9042959,131.824219 58.7226571,131.857422 58.5625,131.923828 C58.4023429,131.990235 58.2714849,132.066406 58.1699219,132.152344 C58.0683589,132.238282 57.9804691,132.371093 57.90625,132.550781 C57.8320309,132.73047 57.7773439,132.888671 57.7421875,133.025391 C57.7070311,133.16211 57.6816407,133.359374 57.6660156,133.617188 C57.6503905,133.875001 57.640625,134.078124 57.6367188,134.226562 C57.6328125,134.375001 57.6308594,134.597655 57.6308594,134.894531 L57.6308594,139.242188 C57.6308594,139.539064 57.6328125,139.761718 57.6367188,139.910156 C57.640625,140.058594 57.6503905,140.261717 57.6660156,140.519531 C57.6816407,140.777345 57.7070311,140.974609 57.7421875,141.111328 C57.7773439,141.248048 57.8320309,141.404296 57.90625,141.580078 C57.9804691,141.75586 58.0683589,141.888671 58.1699219,141.978516 C58.2714849,142.06836 58.4023429,142.144531 58.5625,142.207031 C58.7226571,142.269532 58.9042959,142.300781 59.1074219,142.300781 L59.1074219,142.300781 Z M69.9355469,142.171875 C70.1464854,142.171875 70.3320304,142.132813 70.4921875,142.054688 C70.6523446,141.976562 70.7812495,141.847657 70.8789062,141.667969 C70.976563,141.48828 71.0566403,141.304688 71.1191406,141.117188 C71.1816409,140.929687 71.2265624,140.677736 71.2539062,140.361328 C71.2812501,140.04492 71.2988281,139.757814 71.3066406,139.5 C71.3144532,139.242186 71.3183594,138.914064 71.3183594,138.515625 L71.3183594,135.152344 C71.3183594,134.761717 71.3085938,134.425783 71.2890625,134.144531 C71.2695312,133.86328 71.230469,133.576173 71.171875,133.283203 C71.113281,132.990233 71.0312505,132.751954 70.9257812,132.568359 C70.820312,132.384765 70.6757822,132.236329 70.4921875,132.123047 C70.3085928,132.009765 70.0878919,131.953125 69.8300781,131.953125 C69.2753879,131.953125 68.6972686,132.187498 68.0957031,132.65625 L68.0957031,141.5625 C68.6582059,141.968752 69.2714811,142.171875 69.9355469,142.171875 L69.9355469,142.171875 Z M70.4511719,144.199219 C69.6230427,144.199219 68.8378943,143.792973 68.0957031,142.980469 L68.0957031,144 L65.5292969,144 L65.5292969,124.570312 L68.0957031,124.570312 L68.0957031,131.226562 C68.8535194,130.367183 69.7324169,129.9375 70.7324219,129.9375 C71.1308614,129.9375 71.4921859,130.005859 71.8164062,130.142578 C72.1406266,130.279298 72.4082021,130.45703 72.6191406,130.675781 C72.8300792,130.894532 73.0175773,131.160155 73.1816406,131.472656 C73.3457039,131.785158 73.4707027,132.093748 73.5566406,132.398438 C73.6425786,132.703127 73.7109372,133.035154 73.7617188,133.394531 C73.8125003,133.753908 73.845703,134.066405 73.8613281,134.332031 C73.8769532,134.597658 73.8847656,134.871092 73.8847656,135.152344 L73.8847656,138.503906 C73.8847656,142.3008 72.7402458,144.199219 70.4511719,144.199219 L70.4511719,144.199219 Z M78.5371094,135.714844 L81.4785156,135.714844 L81.4785156,134.460938 C81.4785156,134.093748 81.4687501,133.785157 81.4492188,133.535156 C81.4296874,133.285155 81.3906253,133.04297 81.3320312,132.808594 C81.2734372,132.574218 81.1933599,132.390626 81.0917969,132.257812 C80.9902339,132.124999 80.8515634,132.019532 80.6757812,131.941406 C80.4999991,131.863281 80.2871106,131.824219 80.0371094,131.824219 C79.4277313,131.824219 79.0253916,132.042967 78.8300781,132.480469 C78.6347646,132.917971 78.5371094,133.746088 78.5371094,134.964844 L78.5371094,135.714844 Z M80.0722656,144.199219 C79.2597616,144.199219 78.5839871,144.083986 78.0449219,143.853516 C77.5058567,143.623046 77.085939,143.263674 76.7851562,142.775391 C76.4843735,142.287107 76.2734381,141.7168 76.1523438,141.064453 C76.0312494,140.412106 75.9707031,139.60938 75.9707031,138.65625 L75.9707031,135.480469 C75.9707031,134.519526 76.0351556,133.708988 76.1640625,133.048828 C76.2929694,132.388669 76.5097641,131.818362 76.8144531,131.337891 C77.1191421,130.857419 77.5390598,130.503907 78.0742188,130.277344 C78.6093777,130.05078 79.2714804,129.9375 80.0605469,129.9375 C80.5527368,129.9375 80.9902325,129.984375 81.3730469,130.078125 C81.7558613,130.171875 82.0859361,130.30078 82.3632812,130.464844 C82.6406264,130.628907 82.8769521,130.849608 83.0722656,131.126953 C83.2675791,131.404298 83.4257806,131.697264 83.546875,132.005859 C83.6679694,132.314455 83.7636715,132.689451 83.8339844,133.130859 C83.9042972,133.572268 83.9511718,134.011717 83.9746094,134.449219 C83.998047,134.886721 84.0097656,135.398435 84.0097656,135.984375 L83.9980469,137.109375 L78.5371094,137.109375 L78.5371094,138.960938 L78.5371094,139.113281 C78.5371094,139.503908 78.5390625,139.792968 78.5429688,139.980469 C78.546875,140.16797 78.5624999,140.412108 78.5898438,140.712891 C78.6171876,141.013673 78.6621091,141.238281 78.7246094,141.386719 C78.7871097,141.535157 78.8730463,141.691405 78.9824219,141.855469 C79.0917974,142.019532 79.2343741,142.134765 79.4101562,142.201172 C79.5859384,142.267578 79.7988269,142.300781 80.0488281,142.300781 C80.6035184,142.300781 80.9804678,142.11133 81.1796875,141.732422 C81.3789072,141.353514 81.4785156,140.781254 81.4785156,140.015625 L81.4785156,139.171875 L83.9863281,139.171875 L83.9863281,139.710938 C83.9863281,142.70314 82.6816537,144.199219 80.0722656,144.199219 L80.0722656,144.199219 Z M86.3300781,144 L86.3300781,130.125 L88.8964844,130.125 L88.8964844,131.496094 C89.9902398,130.457026 91.1191348,129.9375 92.2832031,129.9375 C92.6738301,129.9375 93.0117173,130.01953 93.296875,130.183594 C93.5820327,130.347657 93.7988274,130.572264 93.9472656,130.857422 C94.0957039,131.14258 94.2011716,131.441405 94.2636719,131.753906 C94.3261722,132.066408 94.3574219,132.406248 94.3574219,132.773438 L94.3574219,144 L91.7910156,144 L91.7910156,133.523438 C91.7910156,132.992185 91.7128914,132.597658 91.5566406,132.339844 C91.4003898,132.08203 91.1113302,131.953125 90.6894531,131.953125 C90.1738255,131.953125 89.5761753,132.238278 88.8964844,132.808594 L88.8964844,144 L86.3300781,144 Z M105.572266,144.199219 C104.44726,144.199219 103.539066,143.845707 102.847656,143.138672 C102.156247,142.431637 101.759766,141.484381 101.658203,140.296875 L103.802734,139.652344 C103.904297,140.550786 104.103514,141.216795 104.400391,141.650391 C104.697267,142.083987 105.123044,142.300781 105.677734,142.300781 C106.138674,142.300781 106.51367,142.150392 106.802734,141.849609 C107.091798,141.548827 107.224609,141.167971 107.201172,140.707031 C107.162109,140.019528 106.787113,139.371097 106.076172,138.761719 L103.708984,136.734375 C103.146482,136.25781 102.716798,135.759768 102.419922,135.240234 C102.123045,134.720701 101.982422,134.089847 101.998047,133.347656 C102.029297,132.261713 102.361325,131.421878 102.994141,130.828125 C103.626956,130.234372 104.490229,129.9375 105.583984,129.9375 C106.630865,129.9375 107.457028,130.279293 108.0625,130.962891 C108.667972,131.646488 109.017578,132.519526 109.111328,133.582031 L107.376953,134.226562 C107.27539,133.445309 107.095704,132.849611 106.837891,132.439453 C106.580077,132.029295 106.193362,131.824219 105.677734,131.824219 C105.26367,131.824219 104.927736,131.960936 104.669922,132.234375 C104.412108,132.507814 104.287109,132.843748 104.294922,133.242188 C104.294922,133.77344 104.525388,134.242185 104.986328,134.648438 L107.447266,136.898438 C108.064456,137.437503 108.546873,137.996091 108.894531,138.574219 C109.242189,139.152347 109.416016,139.843746 109.416016,140.648438 C109.416016,141.804693 109.070316,142.685544 108.378906,143.291016 C107.687497,143.896487 106.751959,144.199219 105.572266,144.199219 L105.572266,144.199219 Z M115.111328,144.199219 C114.43945,144.199219 113.863284,144.111329 113.382812,143.935547 C112.902341,143.759765 112.513673,143.521486 112.216797,143.220703 C111.91992,142.91992 111.685548,142.529299 111.513672,142.048828 C111.341796,141.568357 111.22461,141.066409 111.162109,140.542969 C111.099609,140.019529 111.068359,139.398441 111.068359,138.679688 L111.068359,135.46875 C111.068359,134.539058 111.123046,133.757816 111.232422,133.125 C111.341797,132.492184 111.541014,131.923831 111.830078,131.419922 C112.119142,130.916013 112.5332,130.54297 113.072266,130.300781 C113.611331,130.058593 114.291012,129.9375 115.111328,129.9375 C115.853519,129.9375 116.474607,130.027343 116.974609,130.207031 C117.474612,130.38672 117.86328,130.667967 118.140625,131.050781 C118.41797,131.433596 118.613281,131.88281 118.726562,132.398438 C118.839844,132.914065 118.896484,133.546871 118.896484,134.296875 L118.896484,135.128906 L116.576172,135.128906 L116.576172,134.285156 C116.576172,133.371089 116.47461,132.732424 116.271484,132.369141 C116.068358,132.005858 115.693362,131.824219 115.146484,131.824219 C114.521481,131.824219 114.113282,132.041013 113.921875,132.474609 C113.730468,132.908205 113.634766,133.730463 113.634766,134.941406 L113.634766,139.3125 C113.634766,140.484381 113.742186,141.275389 113.957031,141.685547 C114.171876,142.095705 114.572263,142.300781 115.158203,142.300781 C115.408204,142.300781 115.621093,142.259766 115.796875,142.177734 C115.972657,142.095703 116.111328,141.990235 116.212891,141.861328 C116.314454,141.732421 116.392578,141.558595 116.447266,141.339844 C116.501953,141.121093 116.537109,140.904298 116.552734,140.689453 C116.568359,140.474608 116.576172,140.207033 116.576172,139.886719 L116.576172,138.761719 L118.896484,138.761719 L118.896484,139.722656 C118.896484,140.464847 118.837891,141.097654 118.720703,141.621094 C118.603515,142.144534 118.404298,142.60742 118.123047,143.009766 C117.841795,143.412111 117.453127,143.710937 116.957031,143.90625 C116.460935,144.101563 115.845707,144.199219 115.111328,144.199219 L115.111328,144.199219 Z M121.240234,144 L121.240234,124.570312 L123.806641,124.570312 L123.806641,131.566406 C124.947271,130.480463 126.107416,129.9375 127.287109,129.9375 C127.677736,129.9375 128.01367,130.01953 128.294922,130.183594 C128.576173,130.347657 128.791015,130.572264 128.939453,130.857422 C129.087891,131.14258 129.193359,131.441405 129.255859,131.753906 C129.31836,132.066408 129.349609,132.406248 129.349609,132.773438 L129.349609,144 L126.783203,144 L126.783203,133.523438 C126.783203,132.992185 126.707032,132.597658 126.554688,132.339844 C126.402343,132.08203 126.115236,131.953125 125.693359,131.953125 C125.162107,131.953125 124.533207,132.257809 123.806641,132.867188 L123.806641,144 L121.240234,144 Z M132.033203,128.074219 L132.033203,125.378906 L134.611328,125.378906 L134.611328,128.074219 L132.033203,128.074219 Z M132.033203,144 L132.033203,130.125 L134.599609,130.125 L134.599609,144 L132.033203,144 Z M139.662109,135.714844 L142.603516,135.714844 L142.603516,134.460938 C142.603516,134.093748 142.59375,133.785157 142.574219,133.535156 C142.554687,133.285155 142.515625,133.04297 142.457031,132.808594 C142.398437,132.574218 142.31836,132.390626 142.216797,132.257812 C142.115234,132.124999 141.976563,132.019532 141.800781,131.941406 C141.624999,131.863281 141.412111,131.824219 141.162109,131.824219 C140.552731,131.824219 140.150392,132.042967 139.955078,132.480469 C139.759765,132.917971 139.662109,133.746088 139.662109,134.964844 L139.662109,135.714844 Z M141.197266,144.199219 C140.384762,144.199219 139.708987,144.083986 139.169922,143.853516 C138.630857,143.623046 138.210939,143.263674 137.910156,142.775391 C137.609373,142.287107 137.398438,141.7168 137.277344,141.064453 C137.156249,140.412106 137.095703,139.60938 137.095703,138.65625 L137.095703,135.480469 C137.095703,134.519526 137.160156,133.708988 137.289062,133.048828 C137.417969,132.388669 137.634764,131.818362 137.939453,131.337891 C138.244142,130.857419 138.66406,130.503907 139.199219,130.277344 C139.734378,130.05078 140.39648,129.9375 141.185547,129.9375 C141.677737,129.9375 142.115232,129.984375 142.498047,130.078125 C142.880861,130.171875 143.210936,130.30078 143.488281,130.464844 C143.765626,130.628907 144.001952,130.849608 144.197266,131.126953 C144.392579,131.404298 144.550781,131.697264 144.671875,132.005859 C144.792969,132.314455 144.888672,132.689451 144.958984,133.130859 C145.029297,133.572268 145.076172,134.011717 145.099609,134.449219 C145.123047,134.886721 145.134766,135.398435 145.134766,135.984375 L145.123047,137.109375 L139.662109,137.109375 L139.662109,138.960938 L139.662109,139.113281 C139.662109,139.503908 139.664062,139.792968 139.667969,139.980469 C139.671875,140.16797 139.6875,140.412108 139.714844,140.712891 C139.742188,141.013673 139.787109,141.238281 139.849609,141.386719 C139.91211,141.535157 139.998046,141.691405 140.107422,141.855469 C140.216797,142.019532 140.359374,142.134765 140.535156,142.201172 C140.710938,142.267578 140.923827,142.300781 141.173828,142.300781 C141.728518,142.300781 142.105468,142.11133 142.304688,141.732422 C142.503907,141.353514 142.603516,140.781254 142.603516,140.015625 L142.603516,139.171875 L145.111328,139.171875 L145.111328,139.710938 C145.111328,142.70314 143.806654,144.199219 141.197266,144.199219 L141.197266,144.199219 Z M151.896484,142.171875 C152.107423,142.171875 152.292968,142.132813 152.453125,142.054688 C152.613282,141.976562 152.742187,141.847657 152.839844,141.667969 C152.9375,141.48828 153.017578,141.304688 153.080078,141.117188 C153.142578,140.929687 153.1875,140.677736 153.214844,140.361328 C153.242188,140.04492 153.259766,139.757814 153.267578,139.5 C153.275391,139.242186 153.279297,138.914064 153.279297,138.515625 L153.279297,135.152344 C153.279297,134.761717 153.269531,134.425783 153.25,134.144531 C153.230469,133.86328 153.191407,133.576173 153.132812,133.283203 C153.074218,132.990233 152.992188,132.751954 152.886719,132.568359 C152.781249,132.384765 152.63672,132.236329 152.453125,132.123047 C152.26953,132.009765 152.048829,131.953125 151.791016,131.953125 C151.236325,131.953125 150.658206,132.187498 150.056641,132.65625 L150.056641,141.5625 C150.619143,141.968752 151.232419,142.171875 151.896484,142.171875 L151.896484,142.171875 Z M152.412109,144.199219 C151.58398,144.199219 150.798832,143.792973 150.056641,142.980469 L150.056641,144 L147.490234,144 L147.490234,124.570312 L150.056641,124.570312 L150.056641,131.226562 C150.814457,130.367183 151.693354,129.9375 152.693359,129.9375 C153.091799,129.9375 153.453123,130.005859 153.777344,130.142578 C154.101564,130.279298 154.36914,130.45703 154.580078,130.675781 C154.791017,130.894532 154.978515,131.160155 155.142578,131.472656 C155.306641,131.785158 155.43164,132.093748 155.517578,132.398438 C155.603516,132.703127 155.671875,133.035154 155.722656,133.394531 C155.773438,133.753908 155.806641,134.066405 155.822266,134.332031 C155.837891,134.597658 155.845703,134.871092 155.845703,135.152344 L155.845703,138.503906 C155.845703,142.3008 154.701183,144.199219 152.412109,144.199219 L152.412109,144.199219 Z M160.498047,135.714844 L163.439453,135.714844 L163.439453,134.460938 C163.439453,134.093748 163.429688,133.785157 163.410156,133.535156 C163.390625,133.285155 163.351563,133.04297 163.292969,132.808594 C163.234375,132.574218 163.154297,132.390626 163.052734,132.257812 C162.951171,132.124999 162.812501,132.019532 162.636719,131.941406 C162.460937,131.863281 162.248048,131.824219 161.998047,131.824219 C161.388669,131.824219 160.986329,132.042967 160.791016,132.480469 C160.595702,132.917971 160.498047,133.746088 160.498047,134.964844 L160.498047,135.714844 Z M162.033203,144.199219 C161.220699,144.199219 160.544925,144.083986 160.005859,143.853516 C159.466794,143.623046 159.046877,143.263674 158.746094,142.775391 C158.445311,142.287107 158.234376,141.7168 158.113281,141.064453 C157.992187,140.412106 157.931641,139.60938 157.931641,138.65625 L157.931641,135.480469 C157.931641,134.519526 157.996093,133.708988 158.125,133.048828 C158.253907,132.388669 158.470702,131.818362 158.775391,131.337891 C159.08008,130.857419 159.499997,130.503907 160.035156,130.277344 C160.570315,130.05078 161.232418,129.9375 162.021484,129.9375 C162.513674,129.9375 162.95117,129.984375 163.333984,130.078125 C163.716799,130.171875 164.046874,130.30078 164.324219,130.464844 C164.601564,130.628907 164.83789,130.849608 165.033203,131.126953 C165.228517,131.404298 165.386718,131.697264 165.507812,132.005859 C165.628907,132.314455 165.724609,132.689451 165.794922,133.130859 C165.865235,133.572268 165.912109,134.011717 165.935547,134.449219 C165.958984,134.886721 165.970703,135.398435 165.970703,135.984375 L165.958984,137.109375 L160.498047,137.109375 L160.498047,138.960938 L160.498047,139.113281 C160.498047,139.503908 160.5,139.792968 160.503906,139.980469 C160.507813,140.16797 160.523437,140.412108 160.550781,140.712891 C160.578125,141.013673 160.623047,141.238281 160.685547,141.386719 C160.748047,141.535157 160.833984,141.691405 160.943359,141.855469 C161.052735,142.019532 161.195312,142.134765 161.371094,142.201172 C161.546876,142.267578 161.759764,142.300781 162.009766,142.300781 C162.564456,142.300781 162.941405,142.11133 163.140625,141.732422 C163.339845,141.353514 163.439453,140.781254 163.439453,140.015625 L163.439453,139.171875 L165.947266,139.171875 L165.947266,139.710938 C165.947266,142.70314 164.642591,144.199219 162.033203,144.199219 L162.033203,144.199219 Z M168.291016,144 L168.291016,130.125 L170.857422,130.125 L170.857422,131.496094 C171.951177,130.457026 173.080072,129.9375 174.244141,129.9375 C174.634768,129.9375 174.972655,130.01953 175.257812,130.183594 C175.54297,130.347657 175.759765,130.572264 175.908203,130.857422 C176.056641,131.14258 176.162109,131.441405 176.224609,131.753906 C176.28711,132.066408 176.318359,132.406248 176.318359,132.773438 L176.318359,144 L173.751953,144 L173.751953,133.523438 C173.751953,132.992185 173.673829,132.597658 173.517578,132.339844 C173.361327,132.08203 173.072268,131.953125 172.650391,131.953125 C172.134763,131.953125 171.537113,132.238278 170.857422,132.808594 L170.857422,144 L168.291016,144 Z M186.302734,144.1875 C185.912107,144.1875 185.57422,144.10547 185.289062,143.941406 C185.003905,143.777343 184.78711,143.552736 184.638672,143.267578 C184.490234,142.98242 184.384766,142.683595 184.322266,142.371094 C184.259765,142.058592 184.228516,141.718752 184.228516,141.351562 L184.228516,130.125 L186.794922,130.125 L186.794922,140.601562 C186.794922,141.132815 186.873046,141.527342 187.029297,141.785156 C187.185548,142.04297 187.474607,142.171875 187.896484,142.171875 C188.412112,142.171875 189.009762,141.886722 189.689453,141.316406 L189.689453,130.125 L192.255859,130.125 L192.255859,144 L189.689453,144 L189.689453,142.628906 C188.595698,143.667974 187.466803,144.1875 186.302734,144.1875 L186.302734,144.1875 Z M194.880859,144 L194.880859,130.125 L197.248047,130.125 L197.248047,131.4375 C198.185552,130.398432 199.275384,129.878906 200.517578,129.878906 C201.689459,129.878906 202.439451,130.464838 202.767578,131.636719 C203.736333,130.464838 204.888665,129.878906 206.224609,129.878906 C206.951176,129.878906 207.542966,130.144529 208,130.675781 C208.457034,131.207034 208.685547,132.019526 208.685547,133.113281 L208.685547,144 L206.318359,144 L206.318359,133.265625 C206.318359,132.632809 206.214845,132.189454 206.007812,131.935547 C205.80078,131.681639 205.505861,131.558594 205.123047,131.566406 C204.404293,131.566406 203.681644,131.941402 202.955078,132.691406 C202.962891,132.785157 202.966797,132.92578 202.966797,133.113281 L202.966797,144 L200.611328,144 L200.611328,133.265625 C200.611328,132.632809 200.507814,132.189454 200.300781,131.935547 C200.093749,131.681639 199.79883,131.558594 199.416016,131.566406 C198.705075,131.566406 197.982426,131.945309 197.248047,132.703125 L197.248047,144 L194.880859,144 Z M4.69726562,169.167969 L7.94335938,169.167969 L6.31445312,160.390625 L4.69726562,169.167969 Z M0.853515625,176 L5.00195312,156.570312 L7.61523437,156.570312 L11.7636719,176 L9.18554688,176 L8.29492188,171.101562 L4.34570312,171.101562 L3.41992188,176 L0.853515625,176 Z M17.3769531,174.171875 C17.8769556,174.171875 18.4003879,174.000002 18.9472656,173.65625 L18.9472656,164.5625 C18.3847628,164.156248 17.8457057,163.953125 17.3300781,163.953125 C16.3222606,163.953125 15.8183594,164.917959 15.8183594,166.847656 L15.8183594,170.773438 C15.8183594,171.21094 15.8281249,171.58203 15.8476562,171.886719 C15.8671876,172.191408 15.9082028,172.498045 15.9707031,172.806641 C16.0332034,173.115236 16.1191401,173.361327 16.2285156,173.544922 C16.3378912,173.728517 16.4902334,173.878906 16.6855469,173.996094 C16.8808604,174.113282 17.1113268,174.171875 17.3769531,174.171875 L17.3769531,174.171875 Z M16.7324219,176.199219 C15.5292909,176.207031 14.6484403,175.773442 14.0898438,174.898438 C13.5312472,174.023433 13.2519531,172.574229 13.2519531,170.550781 L13.2519531,167.855469 C13.2519531,167.167965 13.2773435,166.55469 13.328125,166.015625 C13.3789065,165.47656 13.480468,164.943362 13.6328125,164.416016 C13.785157,163.888669 13.9824207,163.451174 14.2246094,163.103516 C14.4667981,162.755858 14.7929667,162.47461 15.203125,162.259766 C15.6132833,162.044921 16.0917941,161.9375 16.6386719,161.9375 C17.4746136,161.9375 18.2441371,162.296871 18.9472656,163.015625 L18.9472656,156.570312 L21.5136719,156.570312 L21.5136719,176 L18.9472656,176 L18.9472656,175.109375 C18.2753873,175.835941 17.5371134,176.199219 16.7324219,176.199219 L16.7324219,176.199219 Z M24.1738281,176 L24.1738281,162.125 L26.7402344,162.125 L26.7402344,164.105469 C27.2167993,163.30859 27.7070287,162.750002 28.2109375,162.429688 C28.7148463,162.109373 29.2480441,161.949219 29.8105469,161.949219 C29.9667977,161.949219 30.1074213,161.957031 30.2324219,161.972656 L30.2324219,164.808594 C29.755857,164.628905 29.2871117,164.539062 28.8261719,164.539062 C28.3964822,164.539062 28.0195329,164.634765 27.6953125,164.826172 C27.3710921,165.017579 27.0527359,165.363279 26.7402344,165.863281 L26.7402344,176 L24.1738281,176 Z M34.1347656,167.714844 L37.0761719,167.714844 L37.0761719,166.460938 C37.0761719,166.093748 37.0664063,165.785157 37.046875,165.535156 C37.0273437,165.285155 36.9882815,165.04297 36.9296875,164.808594 C36.8710935,164.574218 36.7910161,164.390626 36.6894531,164.257812 C36.5878901,164.124999 36.4492196,164.019532 36.2734375,163.941406 C36.0976554,163.863281 35.8847669,163.824219 35.6347656,163.824219 C35.0253876,163.824219 34.6230479,164.042967 34.4277344,164.480469 C34.2324209,164.917971 34.1347656,165.746088 34.1347656,166.964844 L34.1347656,167.714844 Z M35.6699219,176.199219 C34.8574178,176.199219 34.1816433,176.083986 33.6425781,175.853516 C33.1035129,175.623046 32.6835953,175.263674 32.3828125,174.775391 C32.0820297,174.287107 31.8710944,173.7168 31.75,173.064453 C31.6289056,172.412106 31.5683594,171.60938 31.5683594,170.65625 L31.5683594,167.480469 C31.5683594,166.519526 31.6328119,165.708988 31.7617188,165.048828 C31.8906256,164.388669 32.1074204,163.818362 32.4121094,163.337891 C32.7167984,162.857419 33.1367161,162.503907 33.671875,162.277344 C34.2070339,162.05078 34.8691367,161.9375 35.6582031,161.9375 C36.1503931,161.9375 36.5878887,161.984375 36.9707031,162.078125 C37.3535175,162.171875 37.6835924,162.30078 37.9609375,162.464844 C38.2382826,162.628907 38.4746084,162.849608 38.6699219,163.126953 C38.8652354,163.404298 39.0234369,163.697264 39.1445312,164.005859 C39.2656256,164.314455 39.3613278,164.689451 39.4316406,165.130859 C39.5019535,165.572268 39.548828,166.011717 39.5722656,166.449219 C39.5957032,166.886721 39.6074219,167.398435 39.6074219,167.984375 L39.5957031,169.109375 L34.1347656,169.109375 L34.1347656,170.960938 L34.1347656,171.113281 C34.1347656,171.503908 34.1367187,171.792968 34.140625,171.980469 C34.1445313,172.16797 34.1601561,172.412108 34.1875,172.712891 C34.2148439,173.013673 34.2597653,173.238281 34.3222656,173.386719 C34.3847659,173.535157 34.4707026,173.691405 34.5800781,173.855469 C34.6894537,174.019532 34.8320304,174.134765 35.0078125,174.201172 C35.1835946,174.267578 35.3964831,174.300781 35.6464844,174.300781 C36.2011746,174.300781 36.578124,174.11133 36.7773438,173.732422 C36.9765635,173.353514 37.0761719,172.781254 37.0761719,172.015625 L37.0761719,171.171875 L39.5839844,171.171875 L39.5839844,171.710938 C39.5839844,174.70314 38.2793099,176.199219 35.6699219,176.199219 L35.6699219,176.199219 Z M45.1386719,176.199219 C44.0136663,176.199219 43.1054722,175.845707 42.4140625,175.138672 C41.7226528,174.431637 41.3261724,173.484381 41.2246094,172.296875 L43.3691406,171.652344 C43.4707036,172.550786 43.6699204,173.216795 43.9667969,173.650391 C44.2636734,174.083987 44.6894504,174.300781 45.2441406,174.300781 C45.7050804,174.300781 46.0800767,174.150392 46.3691406,173.849609 C46.6582046,173.548827 46.7910157,173.167971 46.7675781,172.707031 C46.7285154,172.019528 46.3535192,171.371097 45.6425781,170.761719 L43.2753906,168.734375 C42.7128878,168.25781 42.2832046,167.759768 41.9863281,167.240234 C41.6894516,166.720701 41.548828,166.089847 41.5644531,165.347656 C41.5957033,164.261713 41.9277312,163.421878 42.5605469,162.828125 C43.1933625,162.234372 44.0566352,161.9375 45.1503906,161.9375 C46.1972709,161.9375 47.0234345,162.279293 47.6289062,162.962891 C48.234378,163.646488 48.5839839,164.519526 48.6777344,165.582031 L46.9433594,166.226562 C46.8417964,165.445309 46.6621107,164.849611 46.4042969,164.439453 C46.1464831,164.029295 45.7597682,163.824219 45.2441406,163.824219 C44.8300761,163.824219 44.4941419,163.960936 44.2363281,164.234375 C43.9785143,164.507814 43.8535156,164.843748 43.8613281,165.242188 C43.8613281,165.77344 44.0917946,166.242185 44.5527344,166.648438 L47.0136719,168.898438 C47.6308625,169.437503 48.1132795,169.996091 48.4609375,170.574219 C48.8085955,171.152347 48.9824219,171.843746 48.9824219,172.648438 C48.9824219,173.804693 48.6367222,174.685544 47.9453125,175.291016 C47.2539028,175.896487 46.3183653,176.199219 45.1386719,176.199219 L45.1386719,176.199219 Z M54.1035156,176.199219 C52.97851,176.199219 52.070316,175.845707 51.3789062,175.138672 C50.6874965,174.431637 50.2910161,173.484381 50.1894531,172.296875 L52.3339844,171.652344 C52.4355474,172.550786 52.6347641,173.216795 52.9316406,173.650391 C53.2285171,174.083987 53.6542941,174.300781 54.2089844,174.300781 C54.6699242,174.300781 55.0449204,174.150392 55.3339844,173.849609 C55.6230483,173.548827 55.7558595,173.167971 55.7324219,172.707031 C55.6933592,172.019528 55.3183629,171.371097 54.6074219,170.761719 L52.2402344,168.734375 C51.6777316,168.25781 51.2480484,167.759768 50.9511719,167.240234 C50.6542954,166.720701 50.5136718,166.089847 50.5292969,165.347656 C50.560547,164.261713 50.892575,163.421878 51.5253906,162.828125 C52.1582063,162.234372 53.0214789,161.9375 54.1152344,161.9375 C55.1621146,161.9375 55.9882782,162.279293 56.59375,162.962891 C57.1992218,163.646488 57.5488277,164.519526 57.6425781,165.582031 L55.9082031,166.226562 C55.8066401,165.445309 55.6269544,164.849611 55.3691406,164.439453 C55.1113268,164.029295 54.724612,163.824219 54.2089844,163.824219 C53.7949198,163.824219 53.4589857,163.960936 53.2011719,164.234375 C52.9433581,164.507814 52.8183593,164.843748 52.8261719,165.242188 C52.8261719,165.77344 53.0566383,166.242185 53.5175781,166.648438 L55.9785156,168.898438 C56.5957062,169.437503 57.0781233,169.996091 57.4257812,170.574219 C57.7734392,171.152347 57.9472656,171.843746 57.9472656,172.648438 C57.9472656,173.804693 57.601566,174.685544 56.9101562,175.291016 C56.2187465,175.896487 55.283209,176.199219 54.1035156,176.199219 L54.1035156,176.199219 Z M59.3183594,176 L59.3183594,174.277344 L63.5722656,164.046875 L59.7519531,164.046875 L59.7519531,162.125 L66.3261719,162.125 L66.3261719,163.519531 L62.0722656,174.066406 L66.2324219,174.066406 L66.2324219,176 L59.3183594,176 Z M70.4863281,167.714844 L73.4277344,167.714844 L73.4277344,166.460938 C73.4277344,166.093748 73.4179688,165.785157 73.3984375,165.535156 C73.3789062,165.285155 73.339844,165.04297 73.28125,164.808594 C73.222656,164.574218 73.1425786,164.390626 73.0410156,164.257812 C72.9394526,164.124999 72.8007821,164.019532 72.625,163.941406 C72.4492179,163.863281 72.2363294,163.824219 71.9863281,163.824219 C71.3769501,163.824219 70.9746104,164.042967 70.7792969,164.480469 C70.5839834,164.917971 70.4863281,165.746088 70.4863281,166.964844 L70.4863281,167.714844 Z M72.0214844,176.199219 C71.2089803,176.199219 70.5332058,176.083986 69.9941406,175.853516 C69.4550754,175.623046 69.0351578,175.263674 68.734375,174.775391 C68.4335922,174.287107 68.2226569,173.7168 68.1015625,173.064453 C67.9804681,172.412106 67.9199219,171.60938 67.9199219,170.65625 L67.9199219,167.480469 C67.9199219,166.519526 67.9843744,165.708988 68.1132812,165.048828 C68.2421881,164.388669 68.4589829,163.818362 68.7636719,163.337891 C69.0683609,162.857419 69.4882786,162.503907 70.0234375,162.277344 C70.5585964,162.05078 71.2206992,161.9375 72.0097656,161.9375 C72.5019556,161.9375 72.9394512,161.984375 73.3222656,162.078125 C73.70508,162.171875 74.0351549,162.30078 74.3125,162.464844 C74.5898451,162.628907 74.8261709,162.849608 75.0214844,163.126953 C75.2167979,163.404298 75.3749994,163.697264 75.4960938,164.005859 C75.6171881,164.314455 75.7128903,164.689451 75.7832031,165.130859 C75.853516,165.572268 75.9003905,166.011717 75.9238281,166.449219 C75.9472657,166.886721 75.9589844,167.398435 75.9589844,167.984375 L75.9472656,169.109375 L70.4863281,169.109375 L70.4863281,170.960938 L70.4863281,171.113281 C70.4863281,171.503908 70.4882812,171.792968 70.4921875,171.980469 C70.4960938,172.16797 70.5117186,172.412108 70.5390625,172.712891 C70.5664064,173.013673 70.6113278,173.238281 70.6738281,173.386719 C70.7363284,173.535157 70.8222651,173.691405 70.9316406,173.855469 C71.0410162,174.019532 71.1835929,174.134765 71.359375,174.201172 C71.5351571,174.267578 71.7480456,174.300781 71.9980469,174.300781 C72.5527371,174.300781 72.9296865,174.11133 73.1289062,173.732422 C73.328126,173.353514 73.4277344,172.781254 73.4277344,172.015625 L73.4277344,171.171875 L75.9355469,171.171875 L75.9355469,171.710938 C75.9355469,174.70314 74.6308724,176.199219 72.0214844,176.199219 L72.0214844,176.199219 Z M78.4433594,160.074219 L78.4433594,157.378906 L81.0214844,157.378906 L81.0214844,160.074219 L78.4433594,160.074219 Z M78.4433594,176 L78.4433594,162.125 L81.0097656,162.125 L81.0097656,176 L78.4433594,176 Z M83.9980469,176 L83.9980469,156.570312 L86.5761719,156.570312 L86.5761719,176 L83.9980469,176 Z M91.5683594,167.714844 L94.5097656,167.714844 L94.5097656,166.460938 C94.5097656,166.093748 94.5000001,165.785157 94.4804688,165.535156 C94.4609374,165.285155 94.4218753,165.04297 94.3632812,164.808594 C94.3046872,164.574218 94.2246099,164.390626 94.1230469,164.257812 C94.0214839,164.124999 93.8828134,164.019532 93.7070312,163.941406 C93.5312491,163.863281 93.3183606,163.824219 93.0683594,163.824219 C92.4589813,163.824219 92.0566416,164.042967 91.8613281,164.480469 C91.6660146,164.917971 91.5683594,165.746088 91.5683594,166.964844 L91.5683594,167.714844 Z M93.1035156,176.199219 C92.2910116,176.199219 91.6152371,176.083986 91.0761719,175.853516 C90.5371067,175.623046 90.117189,175.263674 89.8164062,174.775391 C89.5156235,174.287107 89.3046881,173.7168 89.1835938,173.064453 C89.0624994,172.412106 89.0019531,171.60938 89.0019531,170.65625 L89.0019531,167.480469 C89.0019531,166.519526 89.0664056,165.708988 89.1953125,165.048828 C89.3242194,164.388669 89.5410141,163.818362 89.8457031,163.337891 C90.1503921,162.857419 90.5703098,162.503907 91.1054688,162.277344 C91.6406277,162.05078 92.3027304,161.9375 93.0917969,161.9375 C93.5839868,161.9375 94.0214825,161.984375 94.4042969,162.078125 C94.7871113,162.171875 95.1171861,162.30078 95.3945312,162.464844 C95.6718764,162.628907 95.9082021,162.849608 96.1035156,163.126953 C96.2988291,163.404298 96.4570306,163.697264 96.578125,164.005859 C96.6992194,164.314455 96.7949215,164.689451 96.8652344,165.130859 C96.9355472,165.572268 96.9824218,166.011717 97.0058594,166.449219 C97.029297,166.886721 97.0410156,167.398435 97.0410156,167.984375 L97.0292969,169.109375 L91.5683594,169.109375 L91.5683594,170.960938 L91.5683594,171.113281 C91.5683594,171.503908 91.5703125,171.792968 91.5742188,171.980469 C91.578125,172.16797 91.5937499,172.412108 91.6210938,172.712891 C91.6484376,173.013673 91.6933591,173.238281 91.7558594,173.386719 C91.8183597,173.535157 91.9042963,173.691405 92.0136719,173.855469 C92.1230474,174.019532 92.2656241,174.134765 92.4414062,174.201172 C92.6171884,174.267578 92.8300769,174.300781 93.0800781,174.300781 C93.6347684,174.300781 94.0117178,174.11133 94.2109375,173.732422 C94.4101572,173.353514 94.5097656,172.781254 94.5097656,172.015625 L94.5097656,171.171875 L97.0175781,171.171875 L97.0175781,171.710938 C97.0175781,174.70314 95.7129037,176.199219 93.1035156,176.199219 L93.1035156,176.199219 Z M104.306641,176 L104.306641,174.277344 L108.560547,164.046875 L104.740234,164.046875 L104.740234,162.125 L111.314453,162.125 L111.314453,163.519531 L107.060547,174.066406 L111.220703,174.066406 L111.220703,176 L104.306641,176 Z M115.146484,176.1875 C114.755857,176.1875 114.41797,176.10547 114.132812,175.941406 C113.847655,175.777343 113.63086,175.552736 113.482422,175.267578 C113.333984,174.98242 113.228516,174.683595 113.166016,174.371094 C113.103515,174.058592 113.072266,173.718752 113.072266,173.351562 L113.072266,162.125 L115.638672,162.125 L115.638672,172.601562 C115.638672,173.132815 115.716796,173.527342 115.873047,173.785156 C116.029298,174.04297 116.318357,174.171875 116.740234,174.171875 C117.255862,174.171875 117.853512,173.886722 118.533203,173.316406 L118.533203,162.125 L121.099609,162.125 L121.099609,176 L118.533203,176 L118.533203,174.628906 C117.439448,175.667974 116.310553,176.1875 115.146484,176.1875 L115.146484,176.1875 Z M131.013672,176 L128.271484,162.125 L130.849609,162.125 L132.560547,173.292969 L134.283203,162.125 L136.779297,162.125 L134.154297,176 L131.013672,176 Z M140.751953,167.714844 L143.693359,167.714844 L143.693359,166.460938 C143.693359,166.093748 143.683594,165.785157 143.664062,165.535156 C143.644531,165.285155 143.605469,165.04297 143.546875,164.808594 C143.488281,164.574218 143.408204,164.390626 143.306641,164.257812 C143.205078,164.124999 143.066407,164.019532 142.890625,163.941406 C142.714843,163.863281 142.501954,163.824219 142.251953,163.824219 C141.642575,163.824219 141.240235,164.042967 141.044922,164.480469 C140.849608,164.917971 140.751953,165.746088 140.751953,166.964844 L140.751953,167.714844 Z M142.287109,176.199219 C141.474605,176.199219 140.798831,176.083986 140.259766,175.853516 C139.7207,175.623046 139.300783,175.263674 139,174.775391 C138.699217,174.287107 138.488282,173.7168 138.367188,173.064453 C138.246093,172.412106 138.185547,171.60938 138.185547,170.65625 L138.185547,167.480469 C138.185547,166.519526 138.249999,165.708988 138.378906,165.048828 C138.507813,164.388669 138.724608,163.818362 139.029297,163.337891 C139.333986,162.857419 139.753904,162.503907 140.289062,162.277344 C140.824221,162.05078 141.486324,161.9375 142.275391,161.9375 C142.767581,161.9375 143.205076,161.984375 143.587891,162.078125 C143.970705,162.171875 144.30078,162.30078 144.578125,162.464844 C144.85547,162.628907 145.091796,162.849608 145.287109,163.126953 C145.482423,163.404298 145.640624,163.697264 145.761719,164.005859 C145.882813,164.314455 145.978515,164.689451 146.048828,165.130859 C146.119141,165.572268 146.166016,166.011717 146.189453,166.449219 C146.212891,166.886721 146.224609,167.398435 146.224609,167.984375 L146.212891,169.109375 L140.751953,169.109375 L140.751953,170.960938 L140.751953,171.113281 C140.751953,171.503908 140.753906,171.792968 140.757812,171.980469 C140.761719,172.16797 140.777344,172.412108 140.804688,172.712891 C140.832031,173.013673 140.876953,173.238281 140.939453,173.386719 C141.001953,173.535157 141.08789,173.691405 141.197266,173.855469 C141.306641,174.019532 141.449218,174.134765 141.625,174.201172 C141.800782,174.267578 142.013671,174.300781 142.263672,174.300781 C142.818362,174.300781 143.195312,174.11133 143.394531,173.732422 C143.593751,173.353514 143.693359,172.781254 143.693359,172.015625 L143.693359,171.171875 L146.201172,171.171875 L146.201172,171.710938 C146.201172,174.70314 144.896497,176.199219 142.287109,176.199219 L142.287109,176.199219 Z M148.603516,176 L148.603516,162.125 L151.169922,162.125 L151.169922,164.105469 C151.646487,163.30859 152.136716,162.750002 152.640625,162.429688 C153.144534,162.109373 153.677732,161.949219 154.240234,161.949219 C154.396485,161.949219 154.537109,161.957031 154.662109,161.972656 L154.662109,164.808594 C154.185544,164.628905 153.716799,164.539062 153.255859,164.539062 C152.82617,164.539062 152.44922,164.634765 152.125,164.826172 C151.80078,165.017579 151.482423,165.363279 151.169922,165.863281 L151.169922,176 L148.603516,176 Z M160.697266,174.171875 C160.908204,174.171875 161.093749,174.132813 161.253906,174.054688 C161.414063,173.976562 161.542968,173.847657 161.640625,173.667969 C161.738282,173.48828 161.818359,173.304688 161.880859,173.117188 C161.94336,172.929687 161.988281,172.677736 162.015625,172.361328 C162.042969,172.04492 162.060547,171.757814 162.068359,171.5 C162.076172,171.242186 162.080078,170.914064 162.080078,170.515625 L162.080078,167.152344 C162.080078,166.761717 162.070313,166.425783 162.050781,166.144531 C162.03125,165.86328 161.992188,165.576173 161.933594,165.283203 C161.875,164.990233 161.792969,164.751954 161.6875,164.568359 C161.582031,164.384765 161.437501,164.236329 161.253906,164.123047 C161.070312,164.009765 160.849611,163.953125 160.591797,163.953125 C160.037107,163.953125 159.458987,164.187498 158.857422,164.65625 L158.857422,173.5625 C159.419925,173.968752 160.0332,174.171875 160.697266,174.171875 L160.697266,174.171875 Z M161.212891,176.199219 C160.384761,176.199219 159.599613,175.792973 158.857422,174.980469 L158.857422,176 L156.291016,176 L156.291016,156.570312 L158.857422,156.570312 L158.857422,163.226562 C159.615238,162.367183 160.494136,161.9375 161.494141,161.9375 C161.89258,161.9375 162.253905,162.005859 162.578125,162.142578 C162.902345,162.279298 163.169921,162.45703 163.380859,162.675781 C163.591798,162.894532 163.779296,163.160155 163.943359,163.472656 C164.107423,163.785158 164.232421,164.093748 164.318359,164.398438 C164.404297,164.703127 164.472656,165.035154 164.523438,165.394531 C164.574219,165.753908 164.607422,166.066405 164.623047,166.332031 C164.638672,166.597658 164.646484,166.871092 164.646484,167.152344 L164.646484,170.503906 C164.646484,174.3008 163.501965,176.199219 161.212891,176.199219 L161.212891,176.199219 Z M169.298828,167.714844 L172.240234,167.714844 L172.240234,166.460938 C172.240234,166.093748 172.230469,165.785157 172.210938,165.535156 C172.191406,165.285155 172.152344,165.04297 172.09375,164.808594 C172.035156,164.574218 171.955079,164.390626 171.853516,164.257812 C171.751953,164.124999 171.613282,164.019532 171.4375,163.941406 C171.261718,163.863281 171.048829,163.824219 170.798828,163.824219 C170.18945,163.824219 169.78711,164.042967 169.591797,164.480469 C169.396483,164.917971 169.298828,165.746088 169.298828,166.964844 L169.298828,167.714844 Z M170.833984,176.199219 C170.02148,176.199219 169.345706,176.083986 168.806641,175.853516 C168.267575,175.623046 167.847658,175.263674 167.546875,174.775391 C167.246092,174.287107 167.035157,173.7168 166.914062,173.064453 C166.792968,172.412106 166.732422,171.60938 166.732422,170.65625 L166.732422,167.480469 C166.732422,166.519526 166.796874,165.708988 166.925781,165.048828 C167.054688,164.388669 167.271483,163.818362 167.576172,163.337891 C167.880861,162.857419 168.300779,162.503907 168.835938,162.277344 C169.371096,162.05078 170.033199,161.9375 170.822266,161.9375 C171.314456,161.9375 171.751951,161.984375 172.134766,162.078125 C172.51758,162.171875 172.847655,162.30078 173.125,162.464844 C173.402345,162.628907 173.638671,162.849608 173.833984,163.126953 C174.029298,163.404298 174.187499,163.697264 174.308594,164.005859 C174.429688,164.314455 174.52539,164.689451 174.595703,165.130859 C174.666016,165.572268 174.712891,166.011717 174.736328,166.449219 C174.759766,166.886721 174.771484,167.398435 174.771484,167.984375 L174.759766,169.109375 L169.298828,169.109375 L169.298828,170.960938 L169.298828,171.113281 C169.298828,171.503908 169.300781,171.792968 169.304688,171.980469 C169.308594,172.16797 169.324219,172.412108 169.351562,172.712891 C169.378906,173.013673 169.423828,173.238281 169.486328,173.386719 C169.548828,173.535157 169.634765,173.691405 169.744141,173.855469 C169.853516,174.019532 169.996093,174.134765 170.171875,174.201172 C170.347657,174.267578 170.560546,174.300781 170.810547,174.300781 C171.365237,174.300781 171.742187,174.11133 171.941406,173.732422 C172.140626,173.353514 172.240234,172.781254 172.240234,172.015625 L172.240234,171.171875 L174.748047,171.171875 L174.748047,171.710938 C174.748047,174.70314 173.443372,176.199219 170.833984,176.199219 L170.833984,176.199219 Z M177.150391,176 L177.150391,162.125 L179.716797,162.125 L179.716797,164.105469 C180.193362,163.30859 180.683591,162.750002 181.1875,162.429688 C181.691409,162.109373 182.224607,161.949219 182.787109,161.949219 C182.94336,161.949219 183.083984,161.957031 183.208984,161.972656 L183.208984,164.808594 C182.732419,164.628905 182.263674,164.539062 181.802734,164.539062 C181.373045,164.539062 180.996095,164.634765 180.671875,164.826172 C180.347655,165.017579 180.029298,165.363279 179.716797,165.863281 L179.716797,176 L177.150391,176 Z M188.458984,169.941406 C189.138675,169.941406 189.585936,169.701174 189.800781,169.220703 C190.015626,168.740232 190.123047,167.957037 190.123047,166.871094 C190.123047,166.441404 190.113281,166.082033 190.09375,165.792969 C190.074219,165.503905 190.03125,165.218751 189.964844,164.9375 C189.898437,164.656249 189.806641,164.433595 189.689453,164.269531 C189.572265,164.105468 189.414063,163.972657 189.214844,163.871094 C189.015624,163.769531 188.775392,163.71875 188.494141,163.71875 C187.822262,163.71875 187.371095,163.968747 187.140625,164.46875 C186.910155,164.968753 186.794922,165.769526 186.794922,166.871094 C186.794922,167.253908 186.806641,167.585936 186.830078,167.867188 C186.853516,168.148439 186.90039,168.42578 186.970703,168.699219 C187.041016,168.972658 187.136718,169.195312 187.257812,169.367188 C187.378907,169.539063 187.539062,169.677734 187.738281,169.783203 C187.937501,169.888672 188.177733,169.941406 188.458984,169.941406 L188.458984,169.941406 Z M189.080078,178.273438 C189.822269,178.273438 190.371092,178.164064 190.726562,177.945312 C191.082033,177.726561 191.259766,177.378909 191.259766,176.902344 C191.259766,176.464842 191.125001,176.13672 190.855469,175.917969 C190.585936,175.699218 190.087894,175.554688 189.361328,175.484375 L187.169922,175.308594 C186.943358,175.496095 186.716798,175.751952 186.490234,176.076172 C186.263671,176.400392 186.150391,176.746092 186.150391,177.113281 C186.150391,177.394533 186.216796,177.61328 186.349609,177.769531 C186.482423,177.925782 186.765623,178.048828 187.199219,178.138672 C187.632815,178.228516 188.259762,178.273438 189.080078,178.273438 L189.080078,178.273438 Z M189.115234,180.300781 C188.615232,180.300781 188.177736,180.292969 187.802734,180.277344 C187.427733,180.261719 187.029299,180.228516 186.607422,180.177734 C186.185545,180.126953 185.828126,180.052735 185.535156,179.955078 C185.242186,179.857421 184.970704,179.73047 184.720703,179.574219 C184.470702,179.417968 184.283204,179.220704 184.158203,178.982422 C184.033203,178.744139 183.970703,178.464845 183.970703,178.144531 C183.970703,177.425778 184.160154,176.80469 184.539062,176.28125 C184.917971,175.75781 185.396481,175.339845 185.974609,175.027344 C185.537107,174.894531 185.203126,174.693361 184.972656,174.423828 C184.742186,174.154296 184.626953,173.85547 184.626953,173.527344 C184.626953,173.050779 184.748046,172.632814 184.990234,172.273438 C185.232423,171.914061 185.62695,171.496096 186.173828,171.019531 C185.62695,170.597654 185.222658,170.068363 184.960938,169.431641 C184.699217,168.794919 184.568359,167.941412 184.568359,166.871094 C184.568359,165.253898 184.896481,164.027348 185.552734,163.191406 C186.208988,162.355465 187.177728,161.9375 188.458984,161.9375 C189.873054,161.9375 190.826169,162.445307 191.318359,163.460938 C191.435547,163.296874 191.673826,163.064455 192.033203,162.763672 C192.39258,162.462889 192.779295,162.218751 193.193359,162.03125 L193.591797,161.855469 L194.224609,163.519531 C193.912108,163.589844 193.472659,163.728515 192.90625,163.935547 C192.339841,164.142579 191.994141,164.296874 191.869141,164.398438 C191.986329,164.679689 192.08789,165.076169 192.173828,165.587891 C192.259766,166.099612 192.302734,166.554686 192.302734,166.953125 C192.302734,167.687504 192.238282,168.337888 192.109375,168.904297 C191.980468,169.470706 191.771486,169.972654 191.482422,170.410156 C191.193358,170.847658 190.794924,171.181639 190.287109,171.412109 C189.779294,171.642579 189.169925,171.757812 188.458984,171.757812 C188.326171,171.757812 188.087892,171.732422 187.744141,171.681641 C187.400389,171.630859 187.201172,171.597656 187.146484,171.582031 C187.138672,171.597656 187.103516,171.656249 187.041016,171.757812 C186.978515,171.859376 186.935547,171.933594 186.912109,171.980469 C186.888672,172.027344 186.855469,172.095703 186.8125,172.185547 C186.769531,172.275391 186.738281,172.357422 186.71875,172.431641 C186.699219,172.50586 186.689453,172.578125 186.689453,172.648438 C186.689453,172.828126 186.781249,172.964843 186.964844,173.058594 C187.148438,173.152344 187.443357,173.21875 187.849609,173.257812 C187.888672,173.265625 188.253903,173.300781 188.945312,173.363281 C189.636722,173.425782 189.990234,173.457031 190.005859,173.457031 C192.146495,173.660157 193.216797,174.785146 193.216797,176.832031 C193.216797,178.074225 192.886722,178.962888 192.226562,179.498047 C191.566403,180.033206 190.529304,180.300781 189.115234,180.300781 L189.115234,180.300781 Z M197.552734,167.714844 L200.494141,167.714844 L200.494141,166.460938 C200.494141,166.093748 200.484375,165.785157 200.464844,165.535156 C200.445312,165.285155 200.40625,165.04297 200.347656,164.808594 C200.289062,164.574218 200.208985,164.390626 200.107422,164.257812 C200.005859,164.124999 199.867188,164.019532 199.691406,163.941406 C199.515624,163.863281 199.302736,163.824219 199.052734,163.824219 C198.443356,163.824219 198.041017,164.042967 197.845703,164.480469 C197.65039,164.917971 197.552734,165.746088 197.552734,166.964844 L197.552734,167.714844 Z M199.087891,176.199219 C198.275387,176.199219 197.599612,176.083986 197.060547,175.853516 C196.521482,175.623046 196.101564,175.263674 195.800781,174.775391 C195.499998,174.287107 195.289063,173.7168 195.167969,173.064453 C195.046874,172.412106 194.986328,171.60938 194.986328,170.65625 L194.986328,167.480469 C194.986328,166.519526 195.050781,165.708988 195.179688,165.048828 C195.308594,164.388669 195.525389,163.818362 195.830078,163.337891 C196.134767,162.857419 196.554685,162.503907 197.089844,162.277344 C197.625003,162.05078 198.287105,161.9375 199.076172,161.9375 C199.568362,161.9375 200.005857,161.984375 200.388672,162.078125 C200.771486,162.171875 201.101561,162.30078 201.378906,162.464844 C201.656251,162.628907 201.892577,162.849608 202.087891,163.126953 C202.283204,163.404298 202.441406,163.697264 202.5625,164.005859 C202.683594,164.314455 202.779297,164.689451 202.849609,165.130859 C202.919922,165.572268 202.966797,166.011717 202.990234,166.449219 C203.013672,166.886721 203.025391,167.398435 203.025391,167.984375 L203.013672,169.109375 L197.552734,169.109375 L197.552734,170.960938 L197.552734,171.113281 C197.552734,171.503908 197.554687,171.792968 197.558594,171.980469 C197.5625,172.16797 197.578125,172.412108 197.605469,172.712891 C197.632813,173.013673 197.677734,173.238281 197.740234,173.386719 C197.802735,173.535157 197.888671,173.691405 197.998047,173.855469 C198.107422,174.019532 198.249999,174.134765 198.425781,174.201172 C198.601563,174.267578 198.814452,174.300781 199.064453,174.300781 C199.619143,174.300781 199.996093,174.11133 200.195312,173.732422 C200.394532,173.353514 200.494141,172.781254 200.494141,172.015625 L200.494141,171.171875 L203.001953,171.171875 L203.001953,171.710938 C203.001953,174.70314 201.697279,176.199219 199.087891,176.199219 L199.087891,176.199219 Z M205.345703,176 L205.345703,162.125 L207.912109,162.125 L207.912109,163.496094 C209.005865,162.457026 210.13476,161.9375 211.298828,161.9375 C211.689455,161.9375 212.027342,162.01953 212.3125,162.183594 C212.597658,162.347657 212.814452,162.572264 212.962891,162.857422 C213.111329,163.14258 213.216797,163.441405 213.279297,163.753906 C213.341797,164.066408 213.373047,164.406248 213.373047,164.773438 L213.373047,176 L210.806641,176 L210.806641,165.523438 C210.806641,164.992185 210.728516,164.597658 210.572266,164.339844 C210.416015,164.08203 210.126955,163.953125 209.705078,163.953125 C209.189451,163.953125 208.5918,164.238278 207.912109,164.808594 L207.912109,176 L205.345703,176 Z" id="Nach-oben-schieben-u" fill="#D3D3D3" sketch:type="MSShapeGroup"></path>
            <g id="1-+-Oval-1" transform="translate(88.000000, 60.000000)">
                <text id="2" sketch:type="MSTextLayer" font-family="Avenir Next" font-size="20" font-weight="420" fill="#FFFFFF">
                    <tspan x="14" y="27">2</tspan>
                </text>
                <circle id="Oval-1" stroke="#FFFFFF" stroke-width="2" fill-opacity="0.300000012" fill="#D8D8D8" sketch:type="MSShapeGroup" cx="20" cy="20" r="20"></circle>
            </g>
        </g>
    </g>
</svg>