<svg id="Layer_1" data-name="Layer 1" xmlns="http://www.w3.org/2000/svg" viewBox="0 0 45 27.94">
  <defs>
    <style>
      .cls-1 {
        fill: #fff;
      }
    </style>
  </defs>
  <title>beatport</title>
  <g id="logo-headphones">
    <g>
      <path class="cls-1" d="M168.84,24.87A16.34,16.34,0,1,0,140.6,36h0a1,1,0,0,0,1.44,0l1.75-1.66a1,1,0,0,0,0-1.42h0a11.88,11.88,0,1,1,17.32,0h0a1,1,0,0,0,0,1.42L163,36.09a1,1,0,0,0,1.44,0h0a16.32,16.32,0,0,0,4.43-11.18" transform="translate(-130 -8.53)"/>
      <g>
        <path class="cls-1" d="M175,24.78a22.06,22.06,0,0,0-1-6.53h0a1,1,0,0,0-1.26-.65l-2.32.72a1,1,0,0,0-.67,1.26h0a17.46,17.46,0,0,1-1.66,14.11h0a1,1,0,0,0,.36,1.37l2.07,1.24a1,1,0,0,0,1.39-.34A21.62,21.62,0,0,0,175,24.78" transform="translate(-130 -8.53)"/>
        <path class="cls-1" d="M136.91,33.69a17.46,17.46,0,0,1-1.67-14.11h0a1,1,0,0,0-.67-1.26l-2.32-.72a1,1,0,0,0-1.26.65h0A21.94,21.94,0,0,0,133.08,36h0a1,1,0,0,0,1.39.34l2.07-1.24a1,1,0,0,0,.36-1.39h0Z" transform="translate(-130 -8.53)"/>
      </g>
    </g>
  </g>
</svg>
