<?xml version="1.0" encoding="utf-8"?>
<!-- Generator: Adobe Illustrator 19.2.0, SVG Export Plug-In . SVG Version: 6.00 Build 0)  -->
<svg version="1.1" id="Layer_1" xmlns="http://www.w3.org/2000/svg" xmlns:xlink="http://www.w3.org/1999/xlink" x="0px" y="0px"
	 viewBox="0 0 45 45" style="enable-background:new 0 0 45 45;" xml:space="preserve">
<style type="text/css">
	.st0{fill:#FFFFFF;}
</style>
<title>beatport</title>
<g id="logo-headphones">
	<g>
		<path class="st0" d="M38.8,18.9c0-9-7.2-16.4-16.3-16.4c-9,0-16.4,7.2-16.4,16.3c0,4.2,1.6,8.2,4.4,11.3l0,0c0.4,0.4,1,0.4,1.4,0
			c0,0,0,0,0,0l1.8-1.7c0.4-0.4,0.4-1,0-1.4c0,0,0,0,0,0l0,0c-4.5-4.8-4.3-12.3,0.5-16.8s12.3-4.3,16.8,0.5c4.3,4.6,4.3,11.7,0,16.3
			l0,0c-0.4,0.4-0.4,1,0,1.4c0,0,0,0,0,0l1.9,1.8c0.4,0.4,1,0.4,1.4,0c0,0,0,0,0,0l0,0C37.3,27.1,38.9,23.1,38.8,18.9"/>
		<g>
			<path class="st0" d="M45,18.8c0-2.2-0.3-4.4-1-6.5l0,0c-0.2-0.5-0.7-0.8-1.3-0.7c0,0,0,0,0,0l-2.3,0.7c-0.5,0.2-0.8,0.7-0.7,1.2
				c0,0,0,0,0,0l0,0c1.5,4.7,0.9,9.9-1.7,14.1l0,0c-0.3,0.5-0.1,1.1,0.4,1.4c0,0,0,0,0,0l2.1,1.2c0.5,0.3,1.1,0.1,1.4-0.3
				c0,0,0,0,0,0C43.9,26.6,45,22.7,45,18.8"/>
			<path class="st0" d="M6.9,27.7c-2.5-4.3-3.1-9.4-1.7-14.1l0,0c0.2-0.5-0.1-1.1-0.7-1.3c0,0,0,0,0,0l-2.3-0.7
				c-0.5-0.2-1.1,0.1-1.3,0.6c0,0,0,0,0,0l0,0C-0.9,18.2-0.1,24.6,3.1,30l0,0c0.3,0.5,0.9,0.6,1.4,0.4c0,0,0,0,0,0l2.1-1.2
				C7,28.8,7.2,28.2,6.9,27.7C6.9,27.7,6.9,27.7,6.9,27.7L6.9,27.7L6.9,27.7z"/>
		</g>
	</g>
</g>
<g id="logo-type">
	<path class="st0" d="M43.8,40.5c0,0,0.2,0,0.3,0l0,0c0.1,0,0.3,0.1,0.3,0.3v0.7c0,0,0,0.2-0.3,0.2c-0.2,0-0.4,0-0.4,0
		c-2.9,0-2.8-2.8-2.8-2.8v-5c0-0.2,0.1-0.3,0.3-0.3h0.7c0.2,0,0.3,0.1,0.3,0.3v1.1h2.2c0.2,0,0.3,0.2,0.3,0.3v0.7
		c0,0.1-0.1,0.3-0.3,0.3c-0.1,0-1.8,0-2.2,0v2.7C42.1,38.8,42,40.5,43.8,40.5"/>
	<path class="st0" d="M37.2,41.4c0,0.2-0.1,0.3-0.3,0.3h-0.7c-0.2,0-0.3-0.1-0.3-0.3v-3.7c0,0-0.1-2.8,2.8-2.8c0,0,1,0,1.2,0
		c0.3,0,0.3,0.2,0.3,0.2v0.7c0,0.2-0.2,0.3-0.3,0.3l0,0c-0.1,0-1.1,0-1.2,0c-1.7,0-1.6,1.6-1.6,1.6L37.2,41.4L37.2,41.4z"/>
	<path class="st0" d="M21.8,40.6c0,0,0.2,0,0.3,0l0,0c0.1,0,0.3,0.1,0.3,0.3v0.7c0,0,0,0.2-0.3,0.2c-0.2,0-0.4,0-0.4,0
		C18.9,41.8,19,39,19,39v-5c0-0.2,0.1-0.3,0.3-0.3h0.7c0.2,0,0.3,0.1,0.3,0.3V35h2.2c0.2,0,0.3,0.2,0.3,0.3V36
		c0,0.1-0.1,0.3-0.3,0.3c-0.1,0-1.8,0-2.2,0v2.7C20.2,38.9,20.1,40.6,21.8,40.6"/>
	<path class="st0" d="M8.4,36.2l2.1,0c0.4,0,0.5,0.2,0.5,0.7v0.5c0,0.3-0.1,0.7-0.7,0.7H7.8v-1.2C7.8,36.2,8.2,36.2,8.4,36.2
		 M11.6,40.5c0,0-3,0-3,0c-0.7,0-0.7-0.3-0.7-1.2v0c0.4,0,1.6,0,2.6,0c1.2,0,1.9-0.7,1.9-2v-0.4c0-1.2-0.7-1.9-2-1.9H9.1H8.5
		c-1.3,0-1.9,0.7-1.9,2l0,2.3c0,1.2,0.2,2.4,2,2.4h3c0.2,0,0.3-0.1,0.3-0.3v-0.6C11.9,40.6,11.9,40.5,11.6,40.5"/>
	<path class="st0" d="M33.5,40.5l-0.9,0h-1.1c-0.6,0-0.7-0.2-0.7-0.7v-2.9c0-0.7,0.3-0.7,0.6-0.7l1.9,0c0.7,0,0.7,0.3,0.7,1.2v2.4
		C34.1,40.4,33.7,40.4,33.5,40.5 M35.3,37.3c0-1.2-0.2-2.4-2-2.4h-1.8c-1.3,0-1.9,0.7-1.9,2v2.8c0,1.2,0.7,1.9,2,1.9h1.1l0,0h0.7
		c1.3,0,1.9-0.7,1.9-2L35.3,37.3L35.3,37.3z"/>
	<path class="st0" d="M4.2,40.5l-0.9,0l0,0H2.2c-0.6,0-0.7-0.2-0.7-0.7l0-3.6h2.6c0.7,0,0.7,0.3,0.7,1.2l0,2.5
		C4.8,40.4,4.5,40.4,4.2,40.5 M6,37.3c0-1.2-0.2-2.4-2-2.4H1.5v-1.1c0-0.2-0.1-0.3-0.3-0.3H0.5c-0.2,0-0.3,0.1-0.3,0.3v5.9
		c0,1.2,0.7,2,2,2h1.3h0.6c1.3,0,1.9-0.7,1.9-2v-0.9l0,0L6,37.3L6,37.3z"/>
	<path class="st0" d="M16.5,40.5l-2.1,0c-0.4,0-0.6-0.2-0.6-0.7v-0.5c0-0.3,0.1-0.7,0.7-0.7h2.6l0,1.2
		C17.1,40.4,16.8,40.4,16.5,40.5 M18.3,38.4v-1.1c0-1.2-0.2-2.4-2-2.4h-3c-0.2,0-0.3,0.1-0.3,0.3v0.6c0,0.1,0,0.3,0.3,0.3
		c0,0,3,0,3,0c0.7,0,0.7,0.3,0.7,1.2v0c-0.4,0-1.6,0-2.6,0c-1.2,0-1.9,0.7-1.9,2v0.4c0,1.2,0.7,1.9,2,1.9h1.1l0,0h0.7
		c1.3,0,1.9-0.7,1.9-2V38.4L18.3,38.4z"/>
	<path class="st0" d="M27.5,40.3c-0.1,0.1-0.3,0.2-0.6,0.2h-2.6v-3.6c0-0.5,0.2-0.7,0.7-0.7h2c0.2,0,0.3,0.1,0.4,0.2
		c0.2,0.2,0.2,0.5,0.2,0.8c0,0,0,2.3,0,2.4C27.7,39.9,27.7,40.2,27.5,40.3 M28.9,37.3c0-1.2-0.2-2.4-2-2.4h-1.8c-1.2,0-2,0.7-2,2
		l0,5.8c0,0.2,0.1,0.3,0.2,0.3h0.7c0.2,0,0.3-0.1,0.3-0.3v-1h2.6c1.7,0,2-1.1,2-2.4v-0.5L28.9,37.3z"/>
</g>
</svg>
