<svg id="Layer_1" data-name="Layer 1" xmlns="http://www.w3.org/2000/svg" viewBox="0 0 45 45">
  <defs>
    <style>
      .cls-1 {
        fill: #fff;
      }
    </style>
  </defs>
  <title>itunes</title>
  <path id="iTunes" class="cls-1" d="M22.5,0A22.5,22.5,0,1,0,45,22.5,22.5,22.5,0,0,0,22.5,0Zm0,40.5a18,18,0,1,1,18-18A18,18,0,0,1,22.5,40.5Zm8.24-12a3.69,3.69,0,0,1-3.21,3.9,3.29,3.29,0,0,1-3.74-3A3.69,3.69,0,0,1,27,25.5a3.42,3.42,0,0,1,1.7.22v-9.4l-9,1.67V29.73h0a0.8,0.8,0,0,1,0,.1,3.69,3.69,0,0,1-3.21,3.89,3.29,3.29,0,0,1-3.74-3A3.69,3.69,0,0,1,16,26.8a3.36,3.36,0,0,1,1.7.22V13.49h0l13.06-2.23h0V28.43h0A0.78,0.78,0,0,1,30.74,28.53Z"/>
</svg>
