<svg id="Layer_1" data-name="Layer 1" xmlns="http://www.w3.org/2000/svg" viewBox="0 0 37.5 45">
  <defs>
    <style>
      .cls-1 {
        fill: #fff;
      }
    </style>
  </defs>
  <title>youtube</title>
  <path id="YouTube" class="cls-1" d="M100.47,32.92H98V31.48a1.16,1.16,0,0,1,1.16-1.16h0.16a1.17,1.17,0,0,1,1.17,1.16Zm-9.26-3.07a1.06,1.06,0,0,0-1.14.94v7a1.16,1.16,0,0,0,2.28,0v-7A1.06,1.06,0,0,0,91.21,29.84Zm15-3.9V39.21A6,6,0,0,1,100.12,45H74.89a6,6,0,0,1-6.14-5.79V25.94a6,6,0,0,1,6.14-5.79h25.23A6,6,0,0,1,106.25,25.94ZM76.57,40.65v-14h3.13V24.6H71.36v2H74v14h2.61Zm9.38-11.9H83.34v7.47a13.23,13.23,0,0,1,0,1.81c-0.21.58-1.17,1.19-1.54,0.06a14.86,14.86,0,0,1,0-1.82V28.75H79.18v7.4c0,1.13,0,2,0,2.36a2.38,2.38,0,0,0,.67,1.92c1.17,0.85,3.42-.13,4-1.33v1.54h2.09V28.75h0Zm8.34,8.55V31.09c0-2.37-1.77-3.79-4.18-1.87V24.6h-2.6V40.55l2.14,0,0.19-1C92.57,42,94.29,40.32,94.28,37.3Zm8.16-.82h-2c0,0.08,0,.17,0,0.26v1.09a1.07,1.07,0,0,1-1.07,1.06H99A1.07,1.07,0,0,1,98,37.85V35h4.48V33.29a26.59,26.59,0,0,0-.13-3.17c-0.32-2.23-3.45-2.58-5-1.44a2.94,2.94,0,0,0-1.09,1.47,8.29,8.29,0,0,0-.33,2.63v3.71C95.86,42.65,103.34,41.78,102.45,36.48Zm-10-20.11a1.78,1.78,0,0,0,.63.79,1.82,1.82,0,0,0,1.07.3,1.66,1.66,0,0,0,1-.31,2.4,2.4,0,0,0,.73-0.94l0,1H98.7V4.87H96.41v9.62a1,1,0,0,1-1.91,0V4.87H92.12v8.34c0,1.06,0,1.77.05,2.13A3.58,3.58,0,0,0,92.42,16.37Zm-8.81-7a10.29,10.29,0,0,1,.3-2.78,3,3,0,0,1,3-2.21,3.61,3.61,0,0,1,1.73.39,2.88,2.88,0,0,1,1.11,1,4,4,0,0,1,.54,1.29,10.26,10.26,0,0,1,.15,2v3.13a16.92,16.92,0,0,1-.14,2.53,4,4,0,0,1-.57,1.5,2.72,2.72,0,0,1-1.12,1,3.57,3.57,0,0,1-1.58.33,4.38,4.38,0,0,1-1.68-.28,2.31,2.31,0,0,1-1.07-.86,3.8,3.8,0,0,1-.55-1.39,13.36,13.36,0,0,1-.16-2.44V9.39h0Zm2.28,4.91a1.16,1.16,0,1,0,2.31,0V7.72a1.16,1.16,0,1,0-2.31,0V14.3Zm-8,3.32h2.74V8.14L83.83,0h-3L79.1,6,77.36,0h-3l3.45,8.14v9.48Z" transform="translate(-68.75)"/>
</svg>
