<svg id="Layer_1" data-name="Layer 1" xmlns="http://www.w3.org/2000/svg" viewBox="0 0 45.42 45">
  <defs>
    <style>
      .cls-1 {
        fill: none;
      }

      .cls-2 {
        fill: #fff;
      }
    </style>
  </defs>
  <title>youtube</title>
  <rect class="cls-1" x="0.42" width="45" height="45"/>
  <rect class="cls-1" width="45" height="45"/>
  <path id="YouTube" class="cls-2" d="M98,31H96V29.8A1,1,0,0,1,97,28.86h0.13a1,1,0,0,1,.95.94Zm-7.53-2.5a0.86,0.86,0,0,0-.93.76V34.9a0.95,0.95,0,0,0,1.85,0V29.23A0.86,0.86,0,0,0,90.51,28.47Zm12.23-3.17V36.08a4.87,4.87,0,0,1-5,4.7H77.25a4.87,4.87,0,0,1-5-4.7V25.3a4.87,4.87,0,0,1,5-4.71H97.75A4.87,4.87,0,0,1,102.74,25.3Zm-24.12,12V25.89h2.54V24.21H74.38v1.66h2.12V37.25h2.12Zm7.62-9.67H84.12v6.07a10.75,10.75,0,0,1,0,1.47c-0.17.47-.95,1-1.25,0.05a12.08,12.08,0,0,1,0-1.48V27.58H80.74v6c0,0.92,0,1.61,0,1.92a1.94,1.94,0,0,0,.54,1.56c1,0.69,2.78-.1,3.24-1.08v1.25h1.7V27.58h0ZM93,34.53V29.48c0-1.92-1.44-3.08-3.4-1.52V24.21H87.51v13l1.74,0,0.16-.81C91.62,38.38,93,37,93,34.53Zm6.63-.67H98.06c0,0.06,0,.14,0,0.21V35a0.87,0.87,0,0,1-.87.86H96.87A0.87,0.87,0,0,1,96,35V32.64h3.64V31.27a21.61,21.61,0,0,0-.11-2.57c-0.26-1.81-2.8-2.1-4.08-1.17a2.39,2.39,0,0,0-.89,1.2,6.74,6.74,0,0,0-.27,2.14v3C94.29,38.88,100.37,38.17,99.65,33.86ZM91.5,17.51a1.44,1.44,0,0,0,.51.64,1.48,1.48,0,0,0,.87.24,1.35,1.35,0,0,0,.81-0.25,2,2,0,0,0,.59-0.76l0,0.83H96.6v-10H94.74V16a0.77,0.77,0,0,1-1.55,0V8.17H91.25v6.78c0,0.86,0,1.44,0,1.73A2.91,2.91,0,0,0,91.5,17.51Zm-7.16-5.67a8.36,8.36,0,0,1,.24-2.26A2.42,2.42,0,0,1,87,7.78a2.93,2.93,0,0,1,1.41.32,2.34,2.34,0,0,1,.91.82,3.25,3.25,0,0,1,.44,1,8.34,8.34,0,0,1,.12,1.65v2.54a13.75,13.75,0,0,1-.11,2.05,3.25,3.25,0,0,1-.47,1.22,2.21,2.21,0,0,1-.91.84,2.9,2.9,0,0,1-1.28.27,3.56,3.56,0,0,1-1.37-.23,1.87,1.87,0,0,1-.87-0.7,3.09,3.09,0,0,1-.44-1.13,10.86,10.86,0,0,1-.13-2V11.84h0Zm1.85,4a0.94,0.94,0,1,0,1.88,0V10.48a0.94,0.94,0,1,0-1.88,0v5.35Zm-6.54,2.7h2.23v-7.7l2.63-6.6H82.08l-1.4,4.9L79.26,4.21H76.84l2.8,6.62v7.7Z" transform="translate(-65)"/>
</svg>
